<svg width="402" height="302" viewBox="0 0 402 302" fill="none" xmlns="http://www.w3.org/2000/svg">
<path d="M1 149.996C1 103.677 10.941 67.2651 30.823 40.759C50.9774 14.253 81.8898 1 123.56 1C164.959 1 195.735 14.3869 215.889 41.1607C236.044 67.6667 246.121 103.945 246.121 149.996C246.121 196.315 236.044 232.861 215.889 259.635C195.735 286.141 164.959 299.394 123.56 299.394C81.8898 299.394 50.9774 286.141 30.823 259.635C10.941 232.861 1 196.315 1 149.996ZM156.652 149.996C156.652 128.577 154.473 112.513 150.115 101.803C145.757 90.826 136.906 85.3374 123.56 85.3374C109.943 85.3374 100.955 90.826 96.5971 101.803C92.2394 112.513 90.0605 128.577 90.0605 149.996C90.0605 171.683 92.2394 188.015 96.5971 198.992C100.955 209.701 109.943 215.056 123.56 215.056C136.906 215.056 145.757 209.701 150.115 198.992C154.473 188.015 156.652 171.683 156.652 149.996Z" fill="black" fill-opacity="0.03"/>
<path d="M262.507 90.9598V7.42572H401V301H305.811V90.9598H262.507Z" fill="black" fill-opacity="0.03"/>
<path d="M30.425 40.4564L30.423 40.459L215.889 41.1607L216.289 40.8599C216.289 40.8598 216.288 40.8597 216.288 40.8596C196.017 13.931 165.074 0.5 123.56 0.5C81.7771 0.5 50.6974 13.7951 30.425 40.4564ZM149.65 101.988L149.652 101.992C153.973 112.61 156.152 128.596 156.152 149.996C156.152 171.662 153.973 187.917 149.651 198.805C147.508 204.072 144.272 207.997 139.949 210.612C135.621 213.231 130.168 214.556 123.56 214.556C116.815 214.556 111.259 213.23 106.862 210.611C102.472 207.995 99.2034 204.07 97.061 198.805C92.7392 187.917 90.5605 171.662 90.5605 149.996C90.5605 128.596 92.7396 112.61 97.0602 101.992L97.0618 101.988C99.2058 96.587 102.477 92.5616 106.867 89.8806C111.262 87.1963 116.817 85.8374 123.56 85.8374C130.166 85.8374 135.617 87.1956 139.945 89.8788C144.267 92.5592 147.506 96.5848 149.65 101.988ZM262.007 90.9598V91.4598H262.507H305.311V301V301.5H305.811H401H401.5V301V7.42572V6.92572H401H262.507H262.007V7.42572V90.9598Z" stroke="#D8BC47" stroke-opacity="0.3"/>
</svg>
