<svg width="478" height="302" viewBox="0 0 478 302" fill="none" xmlns="http://www.w3.org/2000/svg">
<path d="M1 150.798C1 104.23 10.9508 67.6217 30.8527 40.973C51.0272 14.3243 81.9708 1 123.683 1C165.123 1 195.93 14.4589 216.104 41.3768C236.279 68.0255 246.366 104.499 246.366 150.798C246.366 197.366 236.279 234.109 216.104 261.027C195.93 287.676 165.123 301 123.683 301C81.9708 301 51.0272 287.676 30.8527 261.027C10.9508 234.109 1 197.366 1 150.798ZM156.807 150.798C156.807 129.264 154.626 113.113 150.264 102.346C145.902 91.3095 137.042 85.7913 123.683 85.7913C110.052 85.7913 101.055 91.3095 96.6927 102.346C92.3307 113.113 90.1495 129.264 90.1495 150.798C90.1495 172.602 92.3307 189.022 96.6927 200.058C101.055 210.825 110.052 216.208 123.683 216.208C137.042 216.208 145.902 210.825 150.264 200.058C154.626 189.022 156.807 172.602 156.807 150.798Z" fill="#AEB6B9" fill-opacity="0.06"/>
<path d="M265.577 231.148C302.109 204.23 331.008 179.869 352.273 158.066C373.538 135.993 384.17 115.401 384.17 96.2893C384.17 89.829 382.671 84.8492 379.672 81.3499C376.945 77.8505 373.265 76.1008 368.63 76.1008C363.178 76.1008 358.816 78.9273 355.544 84.5801C352.545 89.9637 351.455 98.3081 352.273 109.614H264.35C265.168 84.58 270.62 63.9879 280.707 47.8372C291.067 31.6864 304.426 19.8424 320.784 12.3054C337.142 4.76841 355.135 1 374.764 1C409.661 1 435.152 9.34448 451.237 26.0336C467.594 42.4535 475.773 63.5841 475.773 89.4253C475.773 116.612 466.913 142.184 449.192 166.141C431.744 189.829 409.797 209.883 383.352 226.303H477V298.577H265.577V231.148Z" fill="#AEB6B9" fill-opacity="0.06"/>
<path d="M30.4541 40.6712L30.4521 40.6738C10.4644 67.4375 0.5 104.164 0.5 150.798C0.5 197.432 10.4645 234.292 30.4507 261.324L30.4541 261.329C50.7464 288.133 81.8572 301.5 123.683 301.5C165.237 301.5 196.211 288.132 216.503 261.329L216.504 261.327C236.764 234.295 246.866 197.433 246.866 150.798C246.866 104.432 236.764 67.8392 216.503 41.0758C196.212 14.0033 165.239 0.5 123.683 0.5C81.8572 0.5 50.7464 13.8669 30.4541 40.6712ZM149.799 102.53L149.801 102.534C154.126 113.21 156.307 129.283 156.307 150.798C156.307 172.581 154.126 188.925 149.8 199.873C147.654 205.168 144.414 209.115 140.088 211.744C135.755 214.376 130.297 215.708 123.683 215.708C116.931 215.708 111.369 214.375 106.969 211.742C102.574 209.112 99.3017 205.165 97.1569 199.872C92.8304 188.924 90.6495 172.581 90.6495 150.798C90.6495 129.283 92.8309 113.21 97.1562 102.534L97.1577 102.53C99.3042 97.099 102.579 93.0516 106.973 90.3561C111.373 87.6574 116.933 86.2913 123.683 86.2913C130.295 86.2913 135.752 87.6567 140.083 90.3543C144.41 93.0492 147.652 97.0968 149.799 102.53ZM265.28 230.745L265.077 230.895V231.148V298.577V299.077H265.577H477H477.5V298.577V226.303V225.803H477H385.094C410.931 209.525 432.433 189.737 449.595 166.438C467.372 142.404 476.273 116.729 476.273 89.4253C476.273 63.4702 468.054 42.2084 451.594 25.6841C435.376 8.85881 409.727 0.5 374.764 0.5C355.069 0.5 337.004 4.28143 320.575 11.8513C304.124 19.4309 290.694 31.3416 280.286 47.5672L280.283 47.5723C270.137 63.8177 264.67 84.5026 263.85 109.597L263.833 110.114H264.35H352.273H352.81L352.771 109.578C351.956 98.3017 353.054 90.0798 355.979 84.8267C359.182 79.2949 363.395 76.6008 368.63 76.6008C373.119 76.6008 376.651 78.2856 379.277 81.6571L379.285 81.6664L379.292 81.6752C382.187 85.0534 383.67 89.9008 383.67 96.2893C383.67 115.212 373.14 135.685 351.913 157.718C330.674 179.495 301.799 203.837 265.28 230.745Z" stroke="#D8BC47" stroke-opacity="0.3"/>
</svg>
