<svg width="511" height="304" viewBox="0 0 511 304" fill="none" xmlns="http://www.w3.org/2000/svg">
<path d="M295.358 95.2271C296.477 65.2138 306.27 42.2391 324.737 26.3028C343.203 10.1009 368.945 2 401.961 2C423.506 2 441.833 5.58564 456.942 12.757C472.331 19.6627 483.943 29.2244 491.777 41.4422C499.611 53.3944 503.529 66.9403 503.529 82.0797C503.529 100.141 498.912 114.616 489.678 125.506C480.445 136.13 469.953 143.301 458.201 147.02V148.614C492.057 160.566 508.985 183.408 508.985 217.139C508.985 233.872 504.928 248.614 496.813 261.363C488.699 274.112 476.948 284.072 461.559 291.243C446.17 298.414 427.843 302 406.578 302C371.603 302 343.903 294.032 323.477 278.096C303.332 261.894 292.839 237.193 292 203.992H372.163C371.603 214.616 373.981 222.85 379.297 228.693C384.614 234.537 392.588 237.458 403.22 237.458C411.335 237.458 417.63 235.068 422.107 230.287C426.863 225.506 429.242 219.131 429.242 211.163C429.242 201.07 425.744 193.633 418.749 188.853C412.034 184.072 400.982 181.681 385.593 181.681H370.904V118.335H385.173C395.806 118.6 404.759 117.007 412.034 113.554C419.589 109.835 423.366 102.531 423.366 91.6414C423.366 83.4077 421.267 77.2988 417.07 73.3148C412.873 69.0651 407.138 66.9402 399.863 66.9402C391.749 66.9402 385.733 69.7291 381.816 75.3068C378.178 80.6188 376.08 87.259 375.52 95.2271H295.358Z" fill="black" fill-opacity="0.06"/>
<path fill-rule="evenodd" clip-rule="evenodd" d="M2 150.812C2 105.128 11.793 69.1389 31.379 42.8441C50.9649 16.5493 81.7429 3.40186 123.713 3.40186C165.683 3.40186 196.461 16.5493 216.047 42.8441C235.913 69.1389 245.845 105.128 245.845 150.812C245.845 197.027 236.052 233.282 216.466 259.577C196.88 285.872 165.963 299.019 123.713 299.019C81.4631 299.019 50.5452 285.872 30.9593 259.577C11.6531 233.282 2 197.027 2 150.812ZM156.449 96.2306C161.766 108.714 164.424 126.908 164.424 150.812C164.424 175.248 161.766 193.84 156.449 206.589C151.413 219.072 140.501 225.314 123.713 225.314C106.925 225.314 95.8728 219.072 90.5566 206.589C85.5202 193.84 83.002 175.248 83.002 150.812C83.002 126.908 85.6601 108.714 90.9763 96.2306C96.2925 83.4815 107.205 77.107 123.713 77.107C140.221 77.107 151.133 83.4815 156.449 96.2306Z" fill="black" fill-opacity="0.06"/>
<path d="M30.1532 260.169L30.1573 260.174C49.9847 286.793 81.2474 300.019 123.713 300.019C166.178 300.019 197.441 286.793 217.268 260.174C237.026 233.649 246.845 197.157 246.845 150.812C246.845 104.995 236.885 68.7684 216.847 42.2443C197.021 15.6286 165.9 2.40186 123.713 2.40186C81.5245 2.40186 50.4032 15.6294 30.577 42.2467C10.8205 68.7704 1 104.996 1 150.812C1 197.154 10.6782 233.644 30.1532 260.169ZM155.526 96.6154L155.529 96.6224C160.767 108.921 163.424 126.955 163.424 150.812C163.424 175.202 160.767 193.637 155.526 206.204L155.522 206.215C153.082 212.264 149.238 216.764 143.992 219.765C138.729 222.775 131.989 224.314 123.713 224.314C115.437 224.314 108.66 222.775 103.325 219.762C98.0073 216.759 94.0602 212.257 91.4818 206.209C86.5178 193.636 84.002 175.197 84.002 150.812C84.002 126.955 86.6587 108.921 91.8964 96.6224L91.8993 96.6154C94.4819 90.422 98.4015 85.8186 103.652 82.7514C108.915 79.6769 115.583 78.107 123.713 78.107C131.843 78.107 138.511 79.6769 143.774 82.7514C149.024 85.8186 152.944 90.422 155.526 96.6154ZM294.358 95.1898L294.32 96.2271H295.358H375.52H376.452L376.518 95.2972C377.068 87.4669 379.124 81.0103 382.637 75.8773C386.33 70.6221 392.006 67.9402 399.863 67.9402C406.932 67.9402 412.389 69.9981 416.359 74.0174L416.37 74.0289L416.382 74.04C420.308 77.7671 422.366 83.564 422.366 91.6414C422.366 102.28 418.703 109.154 411.598 112.654C404.504 116.019 395.719 117.598 385.198 117.335L385.186 117.335H385.173H370.904H369.904V118.335V181.681V182.681H370.904H385.593C400.929 182.681 411.717 185.073 418.169 189.667L418.177 189.673L418.185 189.678C424.853 194.235 428.242 201.328 428.242 211.163C428.242 218.919 425.935 225.022 421.398 229.582L421.387 229.592L421.377 229.603C417.133 234.136 411.129 236.458 403.22 236.458C392.768 236.458 385.105 233.59 380.037 228.02C374.956 222.435 372.611 214.497 373.161 204.045L373.217 202.992H372.163H292H290.974L291 204.017C291.845 237.422 302.414 262.439 322.851 278.875L322.856 278.879L322.862 278.884C343.516 294.998 371.458 303 406.578 303C427.953 303 446.431 299.396 461.981 292.149C477.521 284.908 489.428 274.829 497.657 261.899C505.884 248.973 509.985 234.042 509.985 217.139C509.985 200.1 505.706 185.737 497.092 174.114C488.594 162.647 475.936 153.926 459.201 147.908V147.748C470.869 143.906 481.279 136.695 490.433 126.162L490.441 126.153C499.865 115.039 504.529 100.313 504.529 82.0797C504.529 66.7595 500.562 53.0224 492.616 40.8986C484.663 28.4964 472.891 18.8198 457.361 11.8488C442.087 4.60148 423.608 1 401.961 1C368.788 1 342.783 9.14052 324.079 25.5494C305.358 41.7076 295.485 64.9702 294.358 95.1898Z" stroke="#D8BC47" stroke-opacity="0.4" stroke-width="2"/>
</svg>
