<svg width="22" height="22" viewBox="0 0 22 22" fill="none" xmlns="http://www.w3.org/2000/svg">
<path fill-rule="evenodd" clip-rule="evenodd" d="M11 1.8335C8.51034 1.8335 8.19868 1.8445 7.22059 1.8885C6.24526 1.93341 5.57884 2.08833 4.99584 2.31475C4.38396 2.54469 3.82962 2.90538 3.37151 3.37166C2.90525 3.82979 2.54456 4.38412 2.31459 4.996C2.08818 5.579 1.93326 6.24541 1.88834 7.22075C1.84343 8.19883 1.83334 8.5105 1.83334 11.0002C1.83334 13.4898 1.84343 13.8015 1.88834 14.7796C1.93326 15.7549 2.08818 16.4213 2.31459 17.0043C2.54459 17.6162 2.90528 18.1705 3.37151 18.6287C3.82965 19.0949 4.38398 19.4556 4.99584 19.6856C5.57884 19.912 6.24526 20.0669 7.22059 20.1118C8.19868 20.1558 8.51034 20.1668 11 20.1668C13.4897 20.1668 13.8013 20.1558 14.7794 20.1118C15.7548 20.0669 16.4212 19.912 17.0042 19.6856C17.6161 19.4556 18.1704 19.0949 18.6285 18.6287C19.0948 18.1705 19.4555 17.6162 19.6854 17.0043C19.9118 16.4213 20.0668 15.7549 20.1117 14.7796C20.1557 13.8015 20.1667 13.4898 20.1667 11.0002C20.1667 8.5105 20.1557 8.19883 20.1117 7.22075C20.0668 6.24541 19.9118 5.579 19.6854 4.996C19.4555 4.38412 19.0948 3.82979 18.6285 3.37166C18.1704 2.90538 17.6161 2.54469 17.0042 2.31475C16.4212 2.08833 15.7548 1.93341 14.7794 1.8885C13.8013 1.8445 13.4897 1.8335 11 1.8335ZM11 3.48533C13.4475 3.48533 13.7372 3.4945 14.7033 3.5385C15.598 3.57975 16.0829 3.72825 16.4065 3.85383C16.8337 4.02066 17.1398 4.21958 17.4607 4.5395C17.7815 4.86033 17.9795 5.1665 18.1463 5.59366C18.271 5.91725 18.4213 6.40216 18.4617 7.29591C18.5057 8.263 18.5148 8.55175 18.5148 11.0002C18.5148 13.4477 18.5057 13.7373 18.4617 14.7035C18.4204 15.5982 18.271 16.0831 18.1463 16.4067C17.9994 16.8048 17.7651 17.1651 17.4607 17.4608C17.1398 17.7817 16.8337 17.9797 16.4065 18.1465C16.0829 18.2712 15.598 18.4215 14.7043 18.4618C13.7381 18.5058 13.4484 18.515 11 18.515C8.55251 18.515 8.26193 18.5058 7.29668 18.4618C6.40201 18.4206 5.91709 18.2712 5.59351 18.1465C5.1953 17.9996 4.83508 17.7653 4.53934 17.4608C4.23488 17.1651 4.00058 16.8049 3.85368 16.4067C3.72809 16.0831 3.57868 15.5982 3.53834 14.7044C3.49434 13.7373 3.48518 13.4486 3.48518 11.0002C3.48518 8.55266 3.49434 8.263 3.53834 7.29683C3.57959 6.40216 3.72809 5.91725 3.85368 5.59366C4.02051 5.1665 4.21943 4.86033 4.53934 4.5395C4.86018 4.21866 5.16634 4.02066 5.59351 3.85383C5.91709 3.72825 6.40201 3.57883 7.29576 3.5385C8.26284 3.4945 8.55159 3.48533 11 3.48533ZM11 14.0554C10.1897 14.0554 9.41259 13.7335 8.83962 13.1606C8.26665 12.5876 7.94476 11.8105 7.94476 11.0002C7.94476 10.1899 8.26665 9.41275 8.83962 8.83978C9.41259 8.2668 10.1897 7.94491 11 7.94491C11.8103 7.94491 12.5874 8.2668 13.1604 8.83978C13.7334 9.41275 14.0553 10.1899 14.0553 11.0002C14.0553 11.8105 13.7334 12.5876 13.1604 13.1606C12.5874 13.7335 11.8103 14.0554 11 14.0554V14.0554ZM11 6.29308C10.3819 6.29308 9.76978 6.41483 9.19869 6.65138C8.6276 6.88794 8.10869 7.23466 7.6716 7.67175C7.23451 8.10885 6.88779 8.62775 6.65123 9.19884C6.41468 9.76993 6.29293 10.382 6.29293 11.0002C6.29293 11.6183 6.41468 12.2304 6.65123 12.8015C6.88779 13.3726 7.23451 13.8915 7.6716 14.3286C8.10869 14.7657 8.6276 15.1124 9.19869 15.3489C9.76978 15.5855 10.3819 15.7072 11 15.7072C12.2484 15.7072 13.4457 15.2113 14.3284 14.3286C15.2112 13.4458 15.7071 12.2486 15.7071 11.0002C15.7071 9.75177 15.2112 8.5545 14.3284 7.67175C13.4457 6.789 12.2484 6.29308 11 6.29308V6.29308ZM16.9932 6.107C16.9932 6.25145 16.9647 6.39449 16.9094 6.52795C16.8542 6.66141 16.7731 6.78267 16.671 6.88481C16.5688 6.98696 16.4476 7.06798 16.3141 7.12326C16.1807 7.17854 16.0376 7.207 15.8932 7.207C15.7487 7.207 15.6057 7.17854 15.4722 7.12326C15.3388 7.06798 15.2175 6.98696 15.1154 6.88481C15.0132 6.78267 14.9322 6.66141 14.8769 6.52795C14.8216 6.39449 14.7932 6.25145 14.7932 6.107C14.7932 5.81526 14.9091 5.53547 15.1154 5.32918C15.3216 5.12289 15.6014 5.007 15.8932 5.007C16.1849 5.007 16.4647 5.12289 16.671 5.32918C16.8773 5.53547 16.9932 5.81526 16.9932 6.107" fill="#E1E1E1"/>
</svg>
