<svg width="196" height="38" viewBox="0 0 196 38" fill="none" xmlns="http://www.w3.org/2000/svg">
<path d="M28.779 0V7.261H18.921V37.206H9.858V7.261H0V0H28.779Z" fill="#E1E1E1"/>
<path d="M52.3015 37.206L44.5635 23.161H42.3905V37.206H33.3275V0H48.5385C51.4711 0 53.9621 0.512333 56.0115 1.537C58.0961 2.56166 59.6508 3.975 60.6755 5.777C61.7001 7.54367 62.2125 9.52233 62.2125 11.713C62.2125 14.1863 61.5058 16.3947 60.0925 18.338C58.7145 20.2813 56.6651 21.6593 53.9445 22.472L62.5305 37.206H52.3015ZM42.3905 16.748H48.0085C49.6691 16.748 50.9058 16.3417 51.7185 15.529C52.5665 14.7163 52.9905 13.568 52.9905 12.084C52.9905 10.6707 52.5665 9.55767 51.7185 8.745C50.9058 7.93233 49.6691 7.526 48.0085 7.526H42.3905V16.748Z" fill="#E1E1E1"/>
<path d="M91.0627 30.634H77.1767L74.9507 37.206H65.4637L78.9257 0H89.4197L102.882 37.206H93.2887L91.0627 30.634ZM88.7307 23.638L84.1197 10.017L79.5617 23.638H88.7307Z" fill="#E1E1E1"/>
<path d="M141.906 0L128.709 37.206H117.367L104.17 0H113.816L123.038 28.09L132.313 0H141.906Z" fill="#E1E1E1"/>
<path d="M154.757 7.261V14.787H166.894V21.783H154.757V29.945H168.484V37.206H145.694V0H168.484V7.261H154.757Z" fill="#E1E1E1"/>
<path d="M183.431 30.21H195.303V37.206H174.368V0H183.431V30.21Z" fill="#E1E1E1"/>
</svg>
