<svg width="960" height="905" viewBox="0 0 960 905" fill="none" xmlns="http://www.w3.org/2000/svg">
<g filter="url(#filter0_d)">
<path fill-rule="evenodd" clip-rule="evenodd" d="M846.18 302.698V303.061L847.532 304.352L846.402 300.459L844.969 297.514L844.99 296.404L845.837 294.166L846.705 293.036L847.674 292.774L848.441 293.096L850.116 295.678L851.104 298.482L853.769 299.571L857.24 301.951L859.722 303.081L858.451 300.076L858.43 298.301L859.036 297.07L860.631 297.353L862.185 299.672L861.538 301.165L861.7 302.315L864.667 306.53L863.275 315.95L864.505 318.492L864.243 321.881L865.696 324.826L867.473 325.794L869.106 326.036L869.732 327.468L871.226 328.598L872.276 331.623L873.83 332.47H874.556L875.585 333.196L877.906 336.061L879.399 336.505L880.57 337.432L880.227 337.977L880.368 338.643L880.974 338.885L882.043 337.836L882.084 336.545L882.609 336.041L883.578 336.323L885.858 338.945L889.047 341.789L890.721 346.772L893.386 351.129L896.575 353.569L899.662 354.78L900.752 356.03L901.397 357.583L901.62 360.468L905.212 366.419L908.22 367.326L910.379 367.468L911.226 371.017L910.964 373.155L910.076 374.063L910.197 376.887L910.681 378.239L911.408 378.925L912.074 379.106L913.244 381.97L916.393 383.402L916.474 383.988L915.424 386.267L913.991 392.117L914.395 393.69L914.939 400.891L915.545 402.363L915.848 410.976L914.496 411.4L913.164 413.276L913.83 416.624L916.231 418.48L918.007 420.699L919.38 425.399L921.236 428.001L921.883 429.756L921.398 433.044L922.488 435.787L923.497 437.199L923.443 437.243L924.991 438.651L925.293 440.285L924.587 445.671L924.991 448.495L926 449.866L925.596 454.869L922.145 459.387L919.723 466.487L920.329 468.242L917.887 482.14L916.817 486.215L912.74 497.672L912.457 504.429L912.801 505.66L913.568 505.761L913.951 507.313L911.711 514.817L911.287 517.782L908.986 525.387L907.049 529.34L902.609 534.948L901.599 537.57L902.246 540.979L901.983 544.59L898.169 547.817L896.534 549.713L893.164 551.811L892.982 552.921L893.527 554.09L889.329 555.563L886.241 557.156L883.113 561.856L881.034 567L880.55 567.403L879.44 567.484L878.411 568.311L878.188 569.501L879.117 570.328L878.411 573.132L875.908 576.48L874.96 583.54L874.435 585.436L873.647 586.041L872.376 585.9L870.66 586.586L871.872 586.909L872.759 587.736L870.984 590.62L869.006 592.093L867.048 594.977L864.989 600.968L865.878 602.057L864.788 607.019L863.375 607.907L862.932 609.44L863.698 611.679L865.232 613.272L864.889 615.047L864.303 615.552L863.577 614.765L863.839 614.22L863.537 612.99L862.951 612.93L861.559 613.797L861.397 614.685L861.962 616.056L860.731 617.428L858.391 618.719L857.199 620.958L857.078 622.087L855.464 626.767L854.354 628.562L850.116 637.841L849.571 642.46L849.531 648.31L848.259 649.964L847.089 656.459L845.837 660.997L844.445 664.507L844.545 668.481L846.725 671.002L847.008 672.898L846.987 673.806L846.342 673.604L845.413 674.29L845.454 677.477L846.18 680.583L807.33 661.017L805.352 660.856L807.128 657.79L807.351 655.834L805.332 651.719L803.939 649.944L802.81 641.028L800.428 639.515L796.755 637.942L794.878 638.668L791.79 638.083L789.752 638.426L789.708 638.48L791.71 638.143L794.797 638.728L796.674 638.002L800.347 639.576L802.729 641.088L803.859 650.004L805.252 651.779L807.27 655.894L807.047 657.851L805.271 660.917L807.249 661.078L846.099 680.644L844.384 681.733L841.882 681.955L839.419 685.707L837.441 686.715L834.777 688.027L831.548 688.349L820.953 688.41L817.28 688.934L813.667 688.793L809.61 689.076L802.042 691.315L797.562 693.533L792.779 697.164L789.085 700.613L785.594 704.083L780.266 710.275L778.168 712.131L773.263 712.756L768.46 713.967L766.744 713.422L764.746 713.543L763.838 713.926L763.071 715.076L765.514 719.534L768.036 717.759L768.5 716.064L769.287 716.427L769.61 724.012L768.318 725.646L767.632 725.989L766.602 725.504L765.997 724.597L764.403 720.421L762.102 717.537L760.407 716.811L759.338 717.154L759.034 718.021L756.875 717.84L755.099 714.249L755.624 713.402L754.938 712.111L753 711.808L751.487 712.817L750.377 712.998L749.469 712.474L746.179 709.146L746.542 706.544L748.479 705.737L749.247 704.385L747.713 700.876L746.805 700.291L742.667 700.593L741.739 703.7L737.743 707.814L735.805 708.198L734.918 708.056L731.85 704.486H734.453L736.754 703.457L739.963 697.81L739.256 695.207L736.552 691.032L735.281 690.386L733.242 691.315L730.315 694.118L726.724 696.801L723.636 697.124L723.252 697.507L723.373 698.516L726.4 699.04L728.096 698.455L729.105 697.709L730.619 698.132L730.941 698.939L730.7 700.17L729.57 701.904L729.025 702.308L727.147 701.864L723.777 702.59L723.071 703.014L716.471 707.472L711.668 713.382L709.246 714.047L708.439 714.612L707.955 715.843L705.109 717.94L704.281 717.718L702.929 716.125L701.698 715.399L697.157 713.946L696.128 712.898L694.271 711.748L692.596 711.526L688.902 710.033L683.03 705.495L679.619 704.143L677.197 704.728L676.793 705.192L674.815 705.152L672.677 703.921L670.538 702.146L667.389 701.46L665.855 701.44L664.281 701.884L662.989 702.973V703.841L663.655 705.152L661.92 705.636L659.357 704.385L657.46 702.086L653.645 698.516L651.687 697.225L648.721 695.853V695.804L646.238 695.55L644.502 696.075L642.909 696.014L639.215 694.038L635.401 690.205L632.818 684.981L630.255 681.088L628.68 679.978L627.449 680.039L623.513 674.754L622.141 672.011L622.827 670.599L622.767 669.489L621.737 666.928L622.141 664.406L623.695 663.115L624.543 660.937L624.522 657.286L623.715 654.401L619.881 645.062L613.826 636.994L609.83 632.697L607.489 630.801L608.559 631.144L614.533 636.368L618.488 641.794L620.164 645.244L619.921 643.368L618.912 640.524L618.084 639.293L615.481 636.288L607.852 628.986L607.812 626.605L609.164 626.061L610.819 627.493L610.618 630.862L610.961 631.326L613.019 631.104L613.584 628.764L613.846 625.194L613.483 622.632L610.335 621.079L608.64 622.753L607.429 623.116L606.137 623.056L605.027 623.54L604.583 624.629L604.804 625.335L606.056 625.738L606.48 626.263L605.491 627.534L599.578 627.029L598.024 627.675L596.712 629.268L595.522 630.095L587.609 630.519L585.814 629.167L587.126 626.847L590.032 625.395L593.382 621.785L594.008 618.255L593.745 617.327L593.968 615.633L595.037 613.293L594.31 608.976L594.815 606.596L594.633 605.426L593.301 603.126L589.789 598.83L588.578 594.473L585.793 589.733L585.269 589.854L583.937 592.96L584.522 594.13L584.199 595.24L582.121 597.378L581.354 600.02L581.05 604.942L578.286 613.938L578.266 616.157L576.651 617.468L573.543 616.056L571.949 615.653L571.101 615.814L566.984 617.367L566.056 618.88L565.531 619.223L562.484 618.759L560.788 620.252L559.537 620.716L558.831 620.373L558.205 619.324L559.012 618.013L560.506 616.54L561.03 615.269L561.394 611.518L562.422 610.005L564.259 610.731L566.137 610.227L568.074 610.106L568.457 610.711L570.334 611.558L571.424 610.973L571.868 609.864L572.837 603.53L572.453 598.588L572.715 593.686L571.808 590.358L572.13 589.914H573.2L573.846 588.664L574.955 584.992L575.138 583.096L578.972 578.195L581.434 575.774L582.363 575.512L582.726 574.564L582.019 571.478L579.8 567.222L580.465 565.245L581.716 564.357L582.887 563.894L584.3 563.853L584.905 563.369L584.744 562.038L584.078 560.767L582.887 560.263L581.616 554.494L580.465 551.932L579.86 548.806L578.689 547.918L578.508 552.134L579.012 552.416L579.517 553.304L579.658 556.067L578.932 559.819L577.782 559.88L574.996 560.767L572.655 563.309L570.395 567.807L570.274 569.965L569.87 571.175L566.56 577.368L565.066 578.619L562.403 578.719L560.849 577.771L559.416 579.909L559.819 580.192L558.971 581.079L552.755 584.367L549.103 587.232L547.852 588.522L547.731 589.37L546.641 591.427L544.461 594.937L542.685 595.724L540.808 598.931L538.547 600.343L537.195 603.026L535.641 607.725L536.186 607.988L537.155 607.867L540.082 605.809L540.384 607.201L540.041 612.425L538.992 612.869L538.406 611.76L536.569 609.722L535.258 608.916L533.886 609.117L532.917 611.397L532.13 611.376L531.302 609.783L528.417 606.011L525.167 602.662L523.451 601.291L522.746 601.069L520.485 601.856L521.353 599.455L522.604 597.66L522.705 599.314L525.571 602.38L526.721 603.167L528.901 602.461L526.68 601.573L526.399 600.746L526.277 600.06L526.64 599.254L525.671 593.807L523.996 589.349L523.734 586.364L522.261 584.085L518.75 580.131L514.531 576.702L515.137 574.181L514.914 572.365L513.824 569.259L511.605 564.68L509.102 563.712L505.046 564.357L503.31 565.346L501.978 563.853L501.998 563.188L500.384 558.891L497.719 552.84L499.475 552.961L500.344 553.768L500.646 555.079L502.14 553.042L502.583 551.71L502.14 549.411L500.586 547.212L499.213 546.022L498.587 545.921L495.117 547.01L493.704 548.362L492.876 548.2L492.916 546.103L493.542 544.67L494.652 545.114L495.015 544.509L492.29 540.717L490.091 539.426L488.718 538.196L488.961 537.248L487.468 536.784L486.923 537.227L486.6 538.539L484.803 539.668L477.82 539.184L477.154 539.023L475.621 537.368L473.603 536.642L470.514 533.718L469.465 533.153L465.066 532.628L462.967 533.052L461.332 534.565L459.435 535.23L458.062 535.331L456.548 534.948L452.855 531.216L447.204 527.122L438.344 522.543L433.601 520.768L432.875 520.848L430.635 522.664L426.942 524.096L425.832 524.237L414.207 523.37L411.705 523.45L407.043 523.814L404.903 524.358L391.623 525.488L386.578 526.315L382.037 528.292L376.81 531.337L368.676 535.029L364.944 536.521L358.929 537.691L350.11 541.1L345.508 541.907L335.921 542.351L329.625 541.746L324.801 540.354L322.379 541.544L320.261 541.08L316.627 543.057L310.25 548.301L308.696 548.987L305.588 549.653L298.868 553.364L296.325 555.644L293.418 557.398L285.89 558.629L283.246 559.678L281.228 561.332L279.392 563.672L277.112 570.288L276.082 574.625L273.983 576.097L272.005 578.175L271.258 579.667L271.239 580.373L270.27 581.442L266.981 583.682L263.206 583.399L262.641 583.621L261.329 585.396L260.32 586.163L258.827 586.647L257.354 583.177L255.537 582.411L251.743 583.702L249.22 583.339L246.233 583.459L245.83 583.863L242.701 584.186L240.966 583.843L239.735 584.327L238.948 585.235L238.705 586.566L235.799 586.868L234.952 586.586L235.416 585.598L234.77 583.318L233.498 581.685L233.055 581.523L231.359 581.826L230.149 582.975L228.372 583.48L222.721 581.442L221.369 581.342L218.625 581.281L212.388 582.37H208.251L206.697 583.197L201.187 583.964L198.482 585.456L194.89 584.549L189.462 584.266L185.264 585.557L183.649 587.332L180.965 588.765L179.814 590.076L177.998 593.263L177.695 594.876L174.587 597.922L172.024 599.435L169.179 598.426L165.505 598.083L161.731 600.645L161.288 601.311L162.054 602.158L161.288 603.026L159.512 604.115L155.98 605.265L154.688 606.596L154.022 608.351L151.701 610.085L147.322 612.425L141.973 613.394L141.893 613.938L142.418 614.503L145.445 615.169L144.093 615.935L142.438 615.633L140.803 614.341L139.552 613.878L138.179 613.958L137.493 614.442L136.989 616.278L135.313 614.947L130.913 613.091L122.538 613.051L121.388 614.12L120.884 614.14L117.635 613.091L114.95 613.514L111.842 612.627L106.514 609.077L101.186 607.846L99.874 604.76L97.6942 602.239L94.0618 598.527L90.732 596.309L86.7557 594.231L85.1613 594.049L83.5668 594.433L82.5577 595.744L80.0754 593.101L80.0961 590.822L78.9451 582.673L78.8653 578.114L79.8133 573.717L80.7416 573.979L82.0936 575.996L84.6971 577.106L86.7764 576.924L88.5522 576.279L89.2785 575.855L95.4749 566.939L94.526 559.597L92.8911 551.529L93.3956 549.774L95.0709 547.696L94.9901 548.523L93.7386 549.915L93.6982 550.964L94.5861 553.485L95.1921 554.393L95.5952 554.111L95.5548 552.698L96.5639 548.987L95.9184 542.492L96.4229 539.164L96.0396 536.683L96.1608 531.499L95.333 526.96L94.8088 525.528L89.4608 515.785L87.9471 511.267L86.6749 508.322L83.5471 502.876L80.9032 496.119L81.0648 495.433L80.3789 490.309L78.9254 485.307L78.481 484.924L78.5825 475.141L79.3698 470.562L78.2799 466.749L77.7143 465.842L77.3713 463.502L76.2213 460.779L71.4981 455.171L70.893 453.336L70.7314 449.261L68.9557 445.671L64.6769 439.276L63.0223 438.268L61.3264 435.847L60.0147 429.937L60.2976 428.102L61.0238 426.387L60.6001 423.826L59.5309 420.094L56.544 413.901L53.5167 408.233L48.8339 401.476L42.1536 394.375L40.9227 390.483L41.9318 388.465L41.7909 386.226L41.8717 385.641L42.2955 385.339L42.6581 390.059L43.3243 391.431L44.0111 387.558L47.2601 391.572L47.7036 392.883L47.9667 397.018L48.4712 398.511L50.0854 400.568L50.7713 400.709L50.8324 400.084L52.2445 399.116L53.1728 399.337L54.7475 396.998L54.8687 392.842L53.294 390.745L50.2874 388.768L48.0672 386.469L46.796 381.224L44.5758 377.633L44.9591 375.636L46.2914 373.519L46.9172 373.983L48.9551 377.654L51.2758 379.65L52.0839 381.93L51.5586 384.794L50.9536 385.46L51.0137 387.517L51.6592 389.393L52.7697 389.494L53.5167 388.688L55.2718 385.298L56.4228 390.987L57.0278 392.54L59.4501 395.787L62.1945 393.629L62.7799 391.673L62.1137 390.724L61.69 389.01L62.4369 384.31L63.2036 384.673L63.587 383.927L63.6077 380.962L58.7031 375.778L56.0996 370.897L53.7177 364.865L51.397 363.453L49.4192 357.846L49.2379 356.777L49.4803 354.598L48.1273 352.359L45.3632 349.132L44.5758 346.833L44.4546 342.092L45.3425 339.792L45.8273 336.847L47.7036 330.796L49.2172 327.77L52.3253 325.33L52.8703 323.293L53.1728 320.57L52.6889 317.423L53.9602 313.55L53.7177 311.25L52.5273 307.963L50.7309 305.421L50.4086 303.505L53.5571 297.131L56.4829 288.719L58.6026 285.573L59.8935 284.846L61.5087 284.564L61.7905 285.129L60.7016 287.186L59.6314 293.379L61.0445 296.364L60.3577 300.721L61.3066 301.689L66.09 299.672L66.6951 297.151L68.0274 293.742L71.64 287.469L72.2047 285.532L78.6022 281.982L81.0037 281.8L85.2224 279.703L89.7426 277.968L93.4163 273.632L94.7477 272.603L97.5128 271.412L100.116 267.499L105.262 265.099L105.828 263.607L107.22 262.84L108.553 262.678L112.185 261.387L115.051 259.612L117.271 257.736L119.047 258.12L119.996 259.068L120.964 259.33L125.142 257.091L127.302 257.837L128.007 258.644L129.542 259.33L131.177 259.632L132.569 259.612L138.684 258.362L142.296 256.788L147.099 252.169L149.502 250.737L149.804 251.322L150.733 251.342L157.534 250.213L159.996 250.354L163.144 249.305L166.414 245.392L167.06 243.637L169.259 241.962L171.641 241.741L177.01 243.072L180.239 244.323L184.699 242.023L194.648 240.571L196.787 239.865L208.654 234.923L211.924 233.229L217.393 228.67L222.035 222.397L225.345 215.276L228.372 211.202L228.11 209.346L228.897 207.611L229.421 207.107L230.854 207.45L231.944 206.865L233.559 205.574L234.73 203.859L236.082 203.194L240.663 199.583L241.329 197.97L241.208 196.719L240.562 196.114L238.826 195.629L237.837 194.157L237.596 189.841L236.304 186.492L236.364 182.034L237.051 179.311L238.846 176.225L241.531 173.684L243.024 172.736L245.809 172.715L244.7 170.234L245.628 168.984L246.233 168.742L246.718 169.206H247.242L249.705 168.358L249.926 167.713L249.362 166.886L249.886 164.687L250.512 163.981L251.662 163.739L252.813 162.468L252.934 161.218L253.398 160.471L254.952 159.907L256.445 161.399L255.981 161.984L254.891 161.863L254.165 164.384L255.557 166.281L257.233 167.329L257.676 169.064L261.874 176.911L267.262 185.524L267.747 187.4L268.15 185.403L267.404 183.951L267.485 182.155L268.695 178.484L267.707 175.458L268.11 173.724L269.503 173.684L272.288 177.052L273.902 178.504L274.69 178.847L275.235 178.545L274.387 178.141L273.378 176.891L272.591 173.744L274.669 171.364L273.943 170.98L272.267 171.485L271.925 171.243L270.855 168.963L268.454 166.361L268.575 163.88L266.112 163.921L264.437 162.408L265.931 162.347L269.159 163.074L270.653 160.814L270.835 159.645L270.613 158.757L268.171 158.273L267.384 157.567L267.324 155.57L267.626 154.924L271.037 154.178L272.793 155.55L272.308 156.619L271.178 156.921L273.519 159.382L274.669 159.624L274.709 158.737L276.284 156.599L278.948 156.982L280.119 157.506L280.704 157.889L281.491 159.765L282.096 160.189L284.357 160.31L285.487 159.019L287.485 159.987L289.745 160.209L293.035 159.745L295.376 160.774L296.628 160.25L294.932 160.088L292.349 158.878L290.552 158.454L289.402 158.374L287.606 158.898H286.254L285.871 158.495L285.326 156.054L286.516 153.351L287.404 153.15L288.453 154.743L290.088 153.613L289.927 151.536L290.573 149.175L293.035 146.694L291.804 146.19L290.613 146.533L288.837 149.559L287.808 149.579L285.89 147.925L285.264 143.487L287.142 139.191L287.828 138.888L289.867 140.058L291.501 139.211L291.885 138.646L291.642 134.31L292.571 134.087L297.112 136.407L298.888 138.122L303.004 140.119L300.704 138.081L300.583 137.577L301.633 135.661L301.169 135.177L299.291 135.157L297.112 135.964L296.87 134.672L297.677 133.543L298.525 133.139L299.15 133.543L300.018 132.05L299.332 131.869L296.466 133.765L295.861 133.745L295.215 132.03L295.921 131.122L296.87 130.679L298.161 131.062L298.625 130.921L299.776 130.114L299.453 129.347L300.765 128.42L302.278 131.829L302.662 132.07L302.884 131.102L302.601 129.166L305.184 130.679L305.245 131.486L306.113 131.909L308.151 131.808L308.595 131.385L308.212 131.062L307.545 131.122L306.961 130.598L307.606 129.973L305.225 128.278L303.066 127.209L303.792 126.362L304.377 126.16L302.036 122.691L304.398 119.323L306.436 117.628L307.586 118.112L311.986 118.213L312.208 115.47L311.784 112.827L312.067 111.315L312.631 110.891L315.053 112.041L313.156 120.069L313.56 119.645L314.913 114.985L317.556 116.337L317.152 118.758L317.576 119.544L318.868 120.351L320.806 118.193L321.834 117.466L322.46 113.614L324.135 110.205L324.216 108.793L322.783 105.122L321.391 104.235L322.481 103.992L324.236 104.255L325.749 105.021L325.568 106.716L324.438 107.2L325.185 109.66L326.113 109.922L327.284 111.113L327.848 110.225L327.445 109.035L328.313 107.018L330.452 105.323L332.006 105.102L330.977 107.623L333.46 110.831L334.166 111.032L336.426 108.652L338.303 105.243L337.354 101.289L339.817 100.301L341.956 99.7965L343.308 100.886L344.56 102.5L344.176 103.347L345.73 105.263L346.275 104.396L346.295 103.67L348.213 103.589L352.228 104.88L354.327 107.845L357.335 109.862L363.894 118.979L364.842 118.515L368.555 121.703L368.959 123.901L367.91 125.414L366.356 130.658L366.577 133.038L366.436 137.335L365.286 139.634L366.336 139.03L366.941 138.182L367.708 133.22L368.798 133.664L370.453 135.298L371.099 137.436L371.199 135.257L369.726 132.696L369.02 129.872L371.522 126.443L371.967 126.523L372.552 129.408L374.63 129.469L374.852 128.44L373.985 126.866L373.298 123.901L376.548 122.973L386.719 125.515V125.642L388.536 126.241L390.635 128.056L390.393 132.171L390.755 132.615L392.189 130.84L391.361 125.374L391.604 124.87L393.863 125.494L396.69 126.927L401.21 131.97L401.391 133.059L402.602 132.595L401.109 130.638L400.301 128.964L400.019 127.29L400.503 126.342L400.746 124.829L404.116 125.414L405.508 124.95L407.264 123.256L403.349 124.486L401.371 123.215L399.797 121.158L399.434 120.109L400.241 119.706L401.977 119.524L403.409 118.515L403.49 118.031L401.029 118.859L398.404 118.375L396.548 117.305L394.429 115.288L394.691 113.493L396.003 110.992L397.355 109.197L402.623 105.888L403.813 100.281L403.692 99.2519L404.722 95.1975L406.276 93.5842L406.477 94.996L407.245 95.4398L409.363 95.0566L412.048 93.2409L414.247 90.9214L414.026 90.0946L412.653 88.2183L411.906 87.5934L411.16 87.4319L410.978 86.9478L411.18 82.9943L411.543 82.006L412.451 81.6021L412.754 82.167L413.4 82.4699L414.228 82.2881L415.64 81.2796L416.205 80.0494L416.003 77.0838L416.225 76.3378L419.616 74.8249L421.634 77.1242L423.572 76.9834L421.715 76.4387L421.089 74.0784L421.675 72.6463L421.836 70.8715L421.17 70.3672L422.239 69.9235L425.347 70.9119L428.132 75.6114V74.8855L429.384 73.2919L426.356 71.2546L427.042 69.661L427.891 69.2375L430.978 69.3385L431.18 68.6323L430.958 66.7161L430.352 65.5258L430.918 64.699L432.875 64.8L435.055 66.2118L437.921 66.3532L439.939 67.8054L441.17 67.9867L450.777 67.3415L453.642 68.2491L457.174 65.8287L460.182 65.8893L461.413 68.2289L460.666 69.8427L461.856 68.6323L462.018 68.1078L461.574 65.5056L461.998 64.7192L464.924 63.6703L467.225 64.5173L468.678 64.3966L467.831 64.2957L466.277 63.1458L466.034 62.117L466.196 55.723L467.427 53.7866L464.117 51.3258L463.007 49.7524L462.098 49.1875L460.444 48.8847L457.315 49.4091L454.611 50.8614L454.187 50.8215L452.069 48.7034L451.645 47.2512L449.344 46.0205L447.285 46.2022L447.144 45.96L449.546 43.0958L451.967 41.9863L454.288 44.2659L455.943 48.179L456.791 48.2597L457.457 47.0493L456.508 44.1044L455.499 42.2887L456.267 42.1075L458.345 42.8131L459.758 42.0671L463.33 45.0524L463.552 46.0205L467.023 50.4581L468.214 50.7206L469.223 49.9336L471.463 46.5854L472.412 46.6661L474.127 48.5015L477.417 54.4519L478.224 55.0975L479.717 55.5412L480.949 54.7144H482.038L483.148 56.3282L486.257 57.6391L487.75 57.6795L488.82 57.3367L490.938 56.1869L491.746 55.0975L494.127 55.5009L494.37 56.1869L492.856 57.0541L492.513 57.5785L492.614 58.1232L493.3 58.7688L494.874 59.4341L496.085 58.8698L496.731 58.0222L497.235 57.9415L500.202 60.2009L499.939 60.6244L500.242 62.4199L500.667 62.7626L504.238 62.2382L505.368 62.7021L507.448 62.8838L509.264 62.6617L510.878 61.431L513.038 61.3104L515.218 64.3361L517.982 65.7681L519.879 67.3415L522.261 67.5631L523.108 67.9468L522.987 67.5228L523.876 65.2235L525.228 63.8722L526.358 63.3881L527.629 63.9524L530.878 63.5693L532.554 62.218L532.049 61.9353L530.798 62.6819L530.576 62.1372L531.04 60.4629L533.058 59.9182L534.551 59.9586L537.337 57.7401L537.256 56.1869L538.063 56.207L538.81 57.0743L538.144 58.1434L534.41 61.3104L535.339 62.3997L532.816 64.9812L532.715 65.6874L533.139 66.7363L534.168 67.7045L535.278 67.2204L535.601 66.3128L537.397 64.8403L540.445 63.9524L538.588 66.2926L539.335 67.4223L540.95 66.6757L541.333 67.3415L539.577 69.8831L540.182 71.3758L540.828 71.981L541.736 71.3959L543.392 71.2142L543.694 71.7387L545.208 71.5974L546.378 70.6898L547.912 66.7969L547.326 66.0301L545.248 66.2926L543.916 65.7277L543.815 65.1831L546.096 62.9242L549.809 60.4427L552.251 59.999L551.746 61.6733L553.119 65.5258L554.673 67.7852L555.662 67.765L556.51 67.1598L556.449 66.6757L555.016 66.1513L555.137 65.7277L556.913 65.284L559.133 66.4137L561.373 69.4394L557.559 72.1016L556.267 73.5943L554.047 77.1646L553.543 79.8677L550.778 78.839L550.556 80.3316L551.908 82.8328L551.888 84.9912L551.524 87.1093L549.991 89.4086L549.789 88.7024L548.013 89.3077L548.094 85.334L547.75 84.9912L547.064 85.1523L546.196 87.4924L544.32 89.1264L543.432 89.1865L543.129 88.3193L542.059 87.8958L539.779 88.7832L538.325 89.9735L537.538 91.3248L537.599 91.9502L538.487 92.6362L537.902 93.9471L536.933 94.7538L536.529 97.2751L537.478 100.079L538.325 100.543L539.537 100.24L540.486 99.1716L540.364 100.845L539.677 103.186L538.285 105.323L537.68 109.378L537.074 110.548L534.531 112.263L531.645 115.994L529.869 119.06L529.829 120.694L527.085 122.55L526.197 122.529L527.549 126.443L528.477 127.835L529.93 129.065L532.735 130.073L536.711 132.615L538.749 134.471L544.622 137.517L545.248 138.061L545.772 140.825L546.984 142.237L552.433 144.839L554.673 146.694L556.711 148.913L562.503 149.155L564.824 150.366L569.91 153.976L572.513 155.086L573.725 155.045L575.985 155.792L577.983 156.78L580.647 161.016L583.755 163.659V384.613H583.775V163.659L588.033 167.128L590.132 167.935L594.432 168.963L597.781 168.762L598.831 169.528L602.241 170.96L605.915 171.485L608.781 175.458L609.245 178.403L610.354 180.542L611.404 181.57L613.079 182.155L615.279 182.418L617.439 183.85L619.215 185.645L623.554 186.896L625.047 187.783L627.166 189.679L628.034 190.042L630.517 190.183L636.309 189.134L639.316 188.025L641.193 187.016L644.22 184.677L645.875 184.092L647.025 181.994L648.257 177.234L648.579 173.825L653.786 167.067L655.804 162.509L656.451 159.201L658.893 152.786L658.327 148.974L659.638 140.623L663.453 131.889L664.14 129.125L661.98 123.195L660.992 116.842L661.314 114.985L662.565 111.779L662.727 109.277L662.242 107.522L660.043 104.9L659.861 102.197L661.456 95.5811L664.664 89.348L664.422 88.3597L663.413 87.23L662.424 83.3573L662.606 82.7117L662.888 82.2074L665.128 80.7955L665.976 79.7668L667.046 76.8017L668.358 77.205L669.064 78.4155L669.084 80.2105L670.012 81.6223L670.195 80.6744L668.963 77.0838L667.994 76.3782L665.33 72.3843L665.976 71.8598L665.552 71.5368L664.119 71.4363L663.938 72.7472L664.624 73.675L663.353 74.0784L662.586 73.7356L662.626 73.2313L664.684 68.7736L666.602 66.1311L666.259 65.3648L667.247 62.5406L668.196 61.1287L669.145 60.7052L669.69 63.3679L672.03 62.904L672.213 62.3593L670.436 60.6244L670.355 59.7168L670.84 57.1348L674.21 47.4526L674.998 42.5108L674.553 38.6179L674.755 38.0732L675.562 37.4882L679.034 36.883L680.265 35.249L681.254 32.768L682.888 32.7074L684.947 33.6756L684.261 34.7245L682.808 36.0561L682.647 38.0934L684.039 36.3181L684.826 36.3787L687.793 38.9001L688.742 40.9778L690.437 47.8761L689.872 50.5388L690.477 55.0773L690.315 57.6795L692.697 59.7774L694.211 59.8985L695.644 59.2529L696.269 59.4947L697.743 61.1085L695.623 64.5173L695.18 66.3935L695.078 68.8342L696.208 69.1567L696.895 68.9755L698.833 69.9235L699.438 70.5888L699.518 72.929L700.487 73.9375L701.315 74.0183L702.808 75.1475L701.597 77.9516L701.315 80.3114L702.263 80.7955L704.423 80.5537L704.645 80.9974L704.302 85.8988L704.806 90.4979L704.968 91.3046L705.835 92.1319L706.401 93.3419L706.218 95.4398L704.988 100.604L706.542 104.638L708.398 106.594L708.681 110.225L709.529 113.231L710.518 115.349L711.264 116.156L712.839 117.003L715.563 117.023L718.671 114.602L724.846 111.779L725.755 109.741L726.623 109.943L727.995 112L727.733 114.138L728.782 116.982L730.155 118.616L733.464 119.887L734.958 119.988L736.33 123.034L741.739 125.474L744.14 127.351L743.999 128.682L742.345 131.606L742.425 132.938L743.293 134.37L743.576 136.044L742.688 138.646L743.919 141.087L745.109 145.141V149.236L746.22 150.345L747.37 153.028L747.006 157.668L746.179 158.817L746.037 161.157L746.239 161.823L747.39 162.549L754.878 171.888L755.604 171.283L757.642 170.94L758.167 171.586L756.472 174.793L756.573 175.499L758.127 178.161L759.842 182.176L761.013 186.472L761.416 189.639L761.013 191.817L761.335 194.157L761.194 195.67L759.176 199.946L759.338 202.145L763.777 207.954L766.442 208.963L766.28 211.525L765.291 213.824L765.009 216.264L765.21 217.031L766.482 218.726L768.399 220.218L768.944 221.267L771.507 222.941L773.465 223.869L775.867 223.93L778.551 226.613L780.044 226.673L782.648 227.52L784.121 228.912L786.624 229.436L790.539 229.134L790.861 228.448L789.873 226.734L791.124 228.166L793.243 231.978L794.111 236.415L794.635 237.485L795.746 238.675L796.936 238.957L797.946 238.715L797.603 236.839L797.764 236.032L799.096 236.052L799.742 236.738L800.004 239.3L801.054 240.289L802.365 240.853L805.11 240.732L807.815 241.519L809.55 243.617L808.844 243.899L809.025 244.524L810.317 246.118L812.052 247.53L813.203 247.025L813.284 245.654L812.597 245.029L812.901 244.222L814.414 244.787L817.723 247.752L819.822 248.135L820.569 249.164L821.962 253.077L822.79 253.299L823.456 255.154L822.224 254.852L821.174 253.783L820.286 253.359L819.217 253.803L817.602 255.8L818.955 259.431L821.598 262.194L823.173 263.283L825.514 264.111L828.42 266.37L829.611 267.883L829.389 269.617L830.156 272.522L831.246 273.45L832.093 276.233L833.345 278.432L834.596 279.622L834.313 284.08L836.311 291.221L837.824 294.891L839.218 296.888L840.166 297.655L840.227 300.055L839.561 301.064L841.034 300.318L842.205 299.35L842.75 298.442L846.18 302.698ZM911.247 441.979L914.797 442.217L914.779 442.241L911.166 442L911.247 441.979ZM903.557 441.616L907.149 442.403L907.069 442.423L903.477 441.636L902.044 440.164L901.123 440.03L901.156 440.003L902.125 440.144L903.557 441.616ZM885.353 457.007L886.686 457.643L886.625 457.672L885.273 457.027L884.466 455.474L884.546 455.454L885.353 457.007ZM876.191 462.312L876.675 462.534L876.594 462.554L876.11 462.332L875.222 460.355L874.96 456.563L869.37 451.742L863.839 449.221L863.92 449.201L869.45 451.722L875.041 456.543L875.303 460.335L876.191 462.312ZM856.957 449.786L860.61 449.886L860.529 449.907L856.877 449.806L855.363 448.777L853.688 447.042L853.082 446.901L853.163 446.881L853.769 447.022L855.443 448.757L856.957 449.786ZM838.39 448.475L840.307 449.039L840.227 449.06L838.309 448.495L837.966 447.769L837.401 447.668L837.482 447.647L838.047 447.748L838.39 448.475ZM823.779 458.298L823.738 458.318L652.151 458.298L650.865 458.308L652.172 458.278L823.779 458.298ZM649.508 384.633L649.548 458.28L649.487 384.633H649.508ZM787.679 640.97L785.736 641.149L782.062 642.44L779.116 642.238L774.232 640.705L772.274 639.172L770.014 638.829L768.641 639.011L768.587 639.068L769.933 638.89L772.193 639.233L774.151 640.766L779.035 642.299L781.981 642.5L785.655 641.21L787.633 641.028L787.679 640.97ZM767.835 639.835L765.574 640.806L761.033 640.403L754.776 639.212L753.243 638.567L750.659 636.086L749.065 634.835L748.52 634.775L746.865 635.138L746.784 635.198L748.439 634.835L748.984 634.896L750.578 636.147L753.162 638.628L754.695 639.273L760.952 640.463L765.493 640.867L767.794 639.878L767.835 639.835ZM744.947 636.187L743.031 636.005L742.284 635.4H739.599L736.855 636.106L736.813 636.157L739.519 635.461H742.203L742.95 636.066L744.868 636.247L744.947 636.187ZM735.941 642.141L732.152 643.206L731.305 642.984L728.601 641.411L723.999 636.025L722.869 633.443L722.364 632.919L721.113 632.516L718.893 630.539L717.197 628.199L713.444 626.202L710.073 623.64L708.519 623.076L707.611 623.277L706.259 622.269L705.896 621.704L706.401 620.171L705.552 618.86L703.777 618.416L702.142 617.408L701.133 615.189L700.547 611.86L701.072 609.218L701.092 607.544L700.81 607.12L696.148 604.579L692.878 604.357L690.296 603.308L689.992 602.582L688.62 601.674L687.369 602.098L687.338 602.141L688.54 601.735L689.911 602.642L690.215 603.369L692.798 604.417L696.067 604.639L700.73 607.181L701.011 607.604L700.992 609.279L700.467 611.921L701.052 615.249L702.061 617.468L703.696 618.477L705.472 618.92L706.32 620.232L705.815 621.764L706.178 622.329L707.531 623.338L708.439 623.136L709.993 623.701L713.363 626.263L717.117 628.26L718.812 630.6L721.033 632.576L722.283 632.98L722.788 633.504L723.918 636.086L728.52 641.472L731.224 643.045L732.072 643.267L735.946 642.178L735.941 642.141ZM685.262 607.014L683.433 606.656L682.687 605.789L682.747 605.265L681.576 602.138L679.679 600.383L679.579 596.591L676.531 591.468L674.775 590.257L672.252 589.107L668.822 589.813L665.573 588.966L663.635 589.713L663.606 589.754L665.492 589.027L668.741 589.874L672.172 589.168L674.695 590.318L676.45 591.528L679.498 596.651L679.599 600.444L681.496 602.198L682.666 605.325L682.606 605.85L683.352 606.717L685.21 607.08L685.262 607.014ZM662.344 591.438L661.334 591.972L660.951 591.447L658.509 589.955L654.916 588.28L651.142 587.998L650.477 587.816L649.447 586.828V586.808L648.882 586.082V586.229L649.366 586.868L650.396 587.877L651.061 588.058L654.835 588.341L658.428 590.015L660.87 591.508L661.254 592.032L662.323 591.468L662.344 591.438ZM824.81 636.826L823.173 636.005L823.697 636.449L824.81 636.826ZM825.783 637.156L825.898 637.195L826.947 635.562L825.783 637.156Z" fill="#496772"/>
<path d="M914.193 379.711L913.244 379.51L912.357 378.319L911.166 373.983L912.337 371.118L913.81 368.677L913.789 366.6L913.487 366.075L914.395 364.179L916.676 362.344L917.685 360.367L917.866 359.298L917.644 358.471L916.333 356.333L915.909 356.091L916.736 354.558L918.613 353.328L918.794 358.249L919.299 359.359L920.348 360.044L920.57 360.892L915.222 373.478L914.253 376.645L914.577 378.602L914.193 379.711Z" fill="#496772"/>
<path d="M608.922 168.338L608.7 167.007L609.285 164.687L610.537 162.952L612.373 161.561L616.168 161.097L617.358 160.451L621.576 161.137L621.697 162.468L620.749 162.912L619.315 163.215L618.367 162.448L616.349 163.255L616.672 163.961L615.319 166.2L612.877 167.128L609.709 167.713L608.922 168.338Z" fill="#496772"/>
<path d="M873.567 331.502L872.376 330.393L871.529 328.517L870.055 327.185L869.208 325.289L869.006 323.635L869.975 323.414L873.042 325.35L873.466 326.056L874.879 328.759L875.141 330.615L874.556 331.321L873.567 331.502Z" fill="#496772"/>
<path d="M765.392 207.914L763.879 207.329L763.455 205.231L762.486 203.92L761.477 203.436L760.932 202.427L761.84 202.205L764.948 203.658L766.764 206.28L766.119 207.531L765.392 207.914Z" fill="#496772"/>
<path d="M921.317 426.911L920.934 426.064L921.055 423.967L921.903 419.166L922.75 418.964L924.264 419.226L922.811 424.027L922.347 426.791L921.317 426.911Z" fill="#496772"/>
<path d="M921.721 417.875L920.268 413.8V410.492L922.145 409.463L922.629 409.827L921.498 414.103L921.721 417.875Z" fill="#496772"/>
<path d="M675.421 34.0592L674.049 32.9497L673.948 31.558L675.26 30.6903L676.168 30.5091L677.238 32.1229L677.097 32.9497L676.047 33.2117L675.421 34.0592Z" fill="#496772"/>
<path d="M677.54 22.8843L676.026 22.2387L675.562 21.5128L676.41 20.2216L677.621 20L678.347 20.3428L678.852 21.2302L677.54 22.8843Z" fill="#496772"/>
<path d="M615.057 177.092L614.431 175.781L616.672 173.684L617.802 174.49L618.165 176.165L615.582 176.104L615.057 177.092Z" fill="#496772"/>
<path d="M427.365 58.2242L429.505 59.999L433.218 57.2156L435.923 55.4807L436.629 55.3797L442.219 49.5101L442.038 47.8357L439.617 44.649L436.407 43.3578L434.954 44.5077L434.691 45.6172L435.438 47.493L435.338 48.0578L434.207 46.444L433.763 44.9312L433.097 44.9918L430.535 46.9685L428.234 45.9802L427.042 47.0897L423.976 47.8155L421.089 46.9079L420.181 45.4355L417.134 42.7728L416.669 43.1362L416.508 44.7702L417.679 49.1068L419.313 53.403L423.35 56.57L427.365 58.2242Z" fill="#496772"/>
<path d="M560.203 109.479L559.859 110.044L559.052 110.79L556.127 110.346L555.501 109.802L555.46 107.724L556.812 104.719L557.962 103.972L560.122 101.753L559.961 100.926L559.314 100.462L558.588 100.664L558.185 101.209L558.407 101.975L557.681 102.742L555.601 102.378L554.794 100.039L555.642 99.4538L555.803 98.425L554.854 98.3645L553.018 99.8975L553.644 101.309L552.938 101.854L549.97 102.419L549.345 103.488L548.84 105.364L549.002 107.018L548.235 110.87L553.805 112.263L556.408 111.879L559.436 112.686L560.587 112.242L561.151 109.418L560.203 109.479Z" fill="#496772"/>
<path d="M415.66 56.3686L419.293 57.7603L421.957 57.4372L422.462 56.3282L420.827 54.8557L419.273 54.4519L416.044 46.3835L414.106 46.7873L412.31 49.9134L412.673 50.8614L412.734 53.9476L411.927 54.7346L411.099 54.6942L410.09 54.089L408.879 56.2878L409.04 56.8728L409.383 57.417L410.594 57.6593L415.66 56.3686Z" fill="#496772"/>
<path d="M551.06 48.2396L550.98 49.2683L551.767 49.1875L552.251 48.7438L555.823 43.7414L556.893 39.6264L555.904 40.1509L554.028 43.9429L551.06 48.2396Z" fill="#496772"/>
<path d="M464.723 46.1013L465.368 46.7873L465.994 45.2745L466.034 43.0958L464.985 39.6466L463.31 40.2918L463.955 43.9832L464.723 46.1013Z" fill="#496772"/>
<path d="M561.797 146.291L563.048 147.219L563.331 147.199L563.896 145.767L563.069 143.084L562.08 141.853L560.828 143.084L560.425 144.254L561.797 146.291Z" fill="#496772"/>
<path d="M544.42 102.076L544.36 102.883L545.208 102.56L545.934 101.39L546.237 99.9581L545.268 98.6471L544.34 98.4856L542.423 99.9984L542.221 101.874L542.564 102.298H543.492L543.149 101.229L543.714 100.845L544.42 102.076Z" fill="#496772"/>
<path d="M543.956 53.4434V54.4721L548.114 52.294L550.313 50.6196L550.515 49.5101L547.609 51.7695L545.955 51.8498L543.956 53.4434Z" fill="#496772"/>
<path d="M550.879 142.781L551.444 143.064L552.816 142.801L553.2 140.32L552.574 140.038L551.322 140.885L550.879 142.781Z" fill="#496772"/>
<path d="M39.8939 387.639L40.5394 388.163L40.9838 387.275L40.5394 385.682L38.3192 381.647L35.7364 374.265L35.6555 373.599L36.099 372.53L35.0091 372.268L34.1419 373.519L34 375.636L35.0091 379.429L36.6439 382.717L39.8939 387.639Z" fill="#496772"/>
<path d="M288.292 137.9L288.474 138.525L291.178 137.517L289.281 134.35L287.848 134.935L287.303 135.802L287.122 136.811L288.292 137.9Z" fill="#496772"/>
<path d="M87.1795 262.477L87.9264 263.102L88.6527 262.537L89.9249 260.561L90.0254 259.854L89.7229 258.261L89.4608 258.12L88.7335 258.564L86.4936 261.589L86.4729 262.82L86.6345 263.001L87.1795 262.477Z" fill="#496772"/>
<path d="M300.826 119.947L301.976 120.573L302.218 119.847L303.004 119.463L303.509 117.003L302.5 115.873L301.471 116.942L300.967 118.233L300.826 119.947Z" fill="#496772"/>
<path d="M581.818 632.133L585.148 633.04L586.217 634.492L586.238 635.904L584.643 637.337L582.04 636.066L578.528 635.804L575.44 637.256L575.036 637.821L575.319 639.677L574.693 640.302L571.828 641.714L569.688 639.535L566.802 638.991L565.995 639.253L565.753 640.241L565.128 640.604L562.524 640.362L559.638 640.806L555.52 640.927L554.814 639.757L551.706 637.175L551.605 636.227L552.635 633.201L560.667 630.821L562.382 630.801L564.441 630.317L568.76 628.401L573.341 628.784L574.633 630.015L574.612 632.193L574.915 632.596L577.014 632.879L579.174 634.109L580.465 634.21L581.818 632.133Z" fill="#496772"/>
<path d="M744.928 705.979L746.361 704.506L747.774 704.486L748.015 704.083L747.127 703.034L743.616 702.308L743.071 704.103L743.354 705.374L744.928 705.979Z" fill="#496772"/>
<path d="M744.14 708.944L744.887 709.852L745.069 709.751L743.898 706.947L743.314 706.564L741.275 706.967L739.741 708.46L739.68 708.763L743.071 708.48L744.14 708.944Z" fill="#496772"/>
<path d="M777.299 857L779.116 856.092L779.58 855.689L779.903 853.51L780.993 850.343L782.143 848.548L783.031 846.329L780.266 843.808L780.286 841.791L780.751 841.045L781.215 841.226L781.517 843.122L783.112 844.998L784.868 846.128L785.634 846.229L786.381 845.744L786.705 843.788L786.26 841.69L786.845 839.512L788.117 837.958L788.602 834.852L787.915 833.117L789.892 834.388L790.216 837.414L789.792 837.676L790.297 838.927L792.456 838.221L793.041 837.051L792.355 835.558L791.931 833.521L793.142 832.613L793.888 832.492L799.015 835.618L800.63 838.442L799.943 839.028L798.067 839.169L796.715 837.716L797.058 837.01L796.956 836.284L796.432 835.8L795.725 836.002L794.514 838.16L794.797 839.592L796.23 842.517L798.248 845.018L799.076 843.788L800.65 843.102L802.204 844.474L802.749 844.433L802.951 842.739L801.78 840.097L802.123 837.495L802.951 836.95L802.829 834.872L802.265 833.763L800.872 832.916L800.226 833.4L800.63 834.267L799.681 834.328L799.378 833.844L800.266 830.858L801.841 829.224L801.599 826.158L801.921 824.464L802.91 823.456L804.565 811.494L807.108 806.451L808.056 808.004L809.61 812.18L809.348 814.116L808.763 814.863L808.864 815.568L809.651 816.234L810.802 814.6L810.68 811.252L809.348 809.094L808.622 802.639L809.712 796.749L808.965 794.591L808.824 792.109L809.772 788.64L809.691 786.442L808.783 785.251L808.622 783.759L810.014 778.797L808.803 776.073L807.653 774.56L804.545 772.261L803.112 771.595L802.184 771.555L801.74 772.039L801.356 773.794L800.65 774.984L799.257 775.791L798.49 775.832L796.21 774.803L795.685 774.036L794.292 774.379L793.809 774.682L791.608 778.494L790.034 779.442L788.702 778.252L784.121 779.18L781.275 778.232L777.925 779.745L776.936 780.652L777.037 782.044L777.481 782.468L779.015 782.811L779.661 783.738L777.824 783.779L776.674 783.194L776.189 781.278L775.039 780.914L773.485 781.459L771.769 783.275L771.871 784.283L769.974 783.214L767.915 783.839L763.273 783.416L756.249 780.108L748.943 775.771L744.483 774.319L743.152 773.189L739.68 773.754L736.815 771.636L731.91 771.051L730.579 771.938L730.538 775.287L728.761 776.9L729.166 779.805L729.832 781.056L730.437 784.122L730.236 785.15L736.129 799.613L738.328 803.506L741.174 806.189L742.567 809.033L742.889 810.364L742.849 812.14L743.273 813.35L747.168 817.626L748.076 817.545L749.226 818.352L747.41 823.435L746.461 819.038L742.607 816.093L742.022 815.044L741.618 815.568L741.456 817.243L742.829 826.078L743.938 826.4L744.887 827.429L746.401 833.017L747.208 834.731L748.338 836.547L749.711 836.486L750.175 836.95L753.061 841.549L755.463 846.451L755.947 846.793L761.78 847.54L762.627 846.007L764.181 847.298L764.141 849.274L762.486 848.932L761.295 848.286L758.874 847.923L757.582 848.831L759.902 852.482L761.477 853.006L764.12 852.199L764.746 852.381L765.069 853.248L765.533 853.571L770.317 853.813L772.173 854.216L774.07 855.648L776.895 856.092L777.299 857Z" fill="#496772"/>
<path d="M803.698 756.891L805.675 757.98L806.745 757.455L809.51 756.951L810.115 756.387L810.196 755.62L809.167 749.992L808.984 749.165L807.31 748.721L806.502 748.136L802.163 742.347L800.287 743.154L797.622 746.664L800.751 749.448L803.253 754.148L803.132 754.753L803.698 756.891Z" fill="#496772"/>
<path d="M712.737 753.482L713.505 754.047L717.561 751.182L718.227 749.69L718.429 748.136L717.904 745.171L717.601 740.552L716.693 739.241L714.736 738.051L713.807 738.313L714.029 739.947L713.767 740.693L712.051 741.964L711.668 746.543L711.607 748.096L712.858 749.73V751.707L712.455 752.009L712.737 753.482Z" fill="#496772"/>
<path d="M810.216 763.144L810.276 764.536L811.811 763.345L813.324 762.76L813.365 762.458L810.378 758.908L807.31 760.461L805.776 759.997L804.283 760.078L802.829 761.268L802.789 762.377L804.747 763.225L809.833 762.579L810.216 763.144Z" fill="#496772"/>
<path d="M786.179 852.3L787.572 852.946L787.955 852.623L788.924 849.113L787.512 845.422L783.637 850.202L784.787 852.603L786.179 852.3Z" fill="#496772"/>
<path d="M787.35 842.255L788.864 845.422L790.357 845.119L790.418 844.776L789.63 841.125L788.763 839.794L787.35 842.255Z" fill="#496772"/>
<path d="M803.274 826.259L803.172 830.213L805.029 827.651L806.563 827.631L806.664 827.328L805.675 825.392L804.545 825.291L803.274 826.259Z" fill="#496772"/>
<path d="M734.311 770.748L734.696 771.031L737.5 770.062L735.523 767.803L734.211 769.356L734.311 770.748Z" fill="#496772"/>
</g>
<defs>
<filter id="filter0_d" x="0" y="0" width="960" height="905" filterUnits="userSpaceOnUse" color-interpolation-filters="sRGB">
<feFlood flood-opacity="0" result="BackgroundImageFix"/>
<feColorMatrix in="SourceAlpha" type="matrix" values="0 0 0 0 0 0 0 0 0 0 0 0 0 0 0 0 0 0 127 0"/>
<feOffset dy="14"/>
<feGaussianBlur stdDeviation="17"/>
<feColorMatrix type="matrix" values="0 0 0 0 0 0 0 0 0 0 0 0 0 0 0 0 0 0 0.25 0"/>
<feBlend mode="normal" in2="BackgroundImageFix" result="effect1_dropShadow"/>
<feBlend mode="normal" in="SourceGraphic" in2="effect1_dropShadow" result="shape"/>
</filter>
</defs>
</svg>
