<svg width="36" height="36" viewBox="0 0 36 36" fill="none" xmlns="http://www.w3.org/2000/svg">
<path d="M18.6641 22.9612L22.6916 27L18.6528 31.0388L20.2503 32.625L25.8753 27L20.2503 21.375L18.6641 22.9612Z" fill="white"/>
<path d="M26.5391 22.9612L30.5666 27L26.5278 31.0388L28.1253 32.625L33.7503 27L28.1253 21.375L26.5391 22.9612Z" fill="white"/>
<path d="M15.7502 25.875H4.50024V8.89875L17.359 17.7975C17.5473 17.9281 17.771 17.9981 18.0002 17.9981C18.2294 17.9981 18.4532 17.9281 18.6415 17.7975L31.5002 8.89875V19.125H33.7502V7.875C33.7502 7.27826 33.5132 6.70597 33.0912 6.28401C32.6693 5.86205 32.097 5.625 31.5002 5.625H4.50024C3.90351 5.625 3.33121 5.86205 2.90925 6.28401C2.4873 6.70597 2.25024 7.27826 2.25024 7.875V25.875C2.25024 26.4717 2.4873 27.044 2.90925 27.466C3.33121 27.8879 3.90351 28.125 4.50024 28.125H15.7502V25.875ZM29.0252 7.875L18.0002 15.5025L6.97524 7.875H29.0252Z" fill="white"/>
</svg>
