<svg width="22" height="18" viewBox="0 0 22 18" fill="none" xmlns="http://www.w3.org/2000/svg">
<g clip-path="url(#clip0)">
<path d="M21.2699 2.11685C20.6776 3.0281 19.9509 3.8049 19.0899 4.44725C19.0984 4.61952 19.1027 4.81424 19.1027 5.03139C19.1027 6.23794 18.9326 7.44595 18.5924 8.65542C18.2523 9.86491 17.7327 11.0226 17.0338 12.1285C16.3348 13.2344 15.5021 14.2141 14.5359 15.0677C13.5696 15.9212 12.4081 16.6018 11.0514 17.1094C9.69469 17.617 8.24065 17.8708 6.68929 17.8708C4.26814 17.8708 2.0385 17.1947 0.000366211 15.8426C0.362111 15.8842 0.709054 15.905 1.0412 15.905C3.06387 15.905 4.87045 15.2606 6.46092 13.9718C5.51784 13.954 4.67323 13.6537 3.92711 13.071C3.18099 12.4883 2.66752 11.7438 2.38672 10.8374C2.66427 10.892 2.93821 10.9194 3.20854 10.9194C3.59765 10.9194 3.98053 10.8669 4.35718 10.7619C3.35073 10.5534 2.5158 10.0349 1.85237 9.20643C1.18898 8.37796 0.857278 7.42173 0.857278 6.33776V6.2819C1.47504 6.63569 2.13398 6.82388 2.8341 6.84647C2.23789 6.43535 1.76518 5.89923 1.41598 5.23812C1.06676 4.57701 0.892144 3.86157 0.892144 3.09181C0.892144 2.27996 1.08883 1.52398 1.48219 0.823861C2.57668 2.2131 3.90289 3.32342 5.46081 4.15483C7.01876 4.98625 8.69014 5.448 10.4749 5.54007C10.3988 5.21192 10.3607 4.86949 10.3606 4.51276C10.3606 3.26722 10.7867 2.2037 11.639 1.32222C12.4913 0.440741 13.5195 0 14.7237 0C15.9845 0 17.0464 0.474832 17.9096 1.4245C18.8957 1.22245 19.8191 0.856999 20.6797 0.328143C20.3482 1.40742 19.7093 2.24001 18.7631 2.82591C19.6327 2.71901 20.4683 2.48266 21.2698 2.11685H21.2699Z" fill="#E1E1E1"/>
</g>
<defs>
<clipPath id="clip0">
<rect width="21.2696" height="17.8708" fill="white"/>
</clipPath>
</defs>
</svg>
