<svg width="402" height="302" fill="none" xmlns="http://www.w3.org/2000/svg"><path d="M1 149.996c0-46.319 9.941-82.73 29.823-109.237C50.977 14.253 81.89 1 123.56 1c41.399 0 72.175 13.387 92.329 40.16 20.155 26.507 30.232 62.785 30.232 108.836 0 46.319-10.077 82.865-30.232 109.639-20.154 26.506-50.93 39.759-92.329 39.759-41.67 0-72.583-13.253-92.737-39.759C10.941 232.861 1 196.315 1 149.996zm155.652 0c0-21.419-2.179-37.483-6.537-48.193-4.358-10.977-13.209-16.466-26.555-16.466-13.617 0-22.605 5.489-26.963 16.466-4.358 10.71-6.536 26.774-6.536 48.193 0 21.687 2.178 38.019 6.536 48.996 4.358 10.709 13.346 16.064 26.963 16.064 13.346 0 22.197-5.355 26.555-16.064 4.358-10.977 6.537-27.309 6.537-48.996zM262.507 90.96V7.426H401V301h-95.189V90.96h-43.304z" fill="#000" fill-opacity=".03"/><path d="M30.425 40.456l-.002.003 185.466.702.4-.301h-.001C196.017 13.93 165.074.5 123.56.5 81.777.5 50.697 13.795 30.425 40.456zm119.225 61.532l.002.004c4.321 10.618 6.5 26.604 6.5 48.004 0 21.666-2.179 37.921-6.501 48.809-2.143 5.267-5.379 9.192-9.702 11.807-4.328 2.619-9.781 3.944-16.389 3.944-6.745 0-12.301-1.326-16.698-3.945-4.39-2.616-7.659-6.541-9.801-11.806-4.322-10.888-6.5-27.143-6.5-48.809 0-21.4 2.179-37.386 6.5-48.004v-.004c2.145-5.401 5.416-9.426 9.806-12.107 4.395-2.685 9.95-4.044 16.693-4.044 6.606 0 12.057 1.359 16.385 4.042 4.322 2.68 7.561 6.706 9.705 12.109zM262.007 90.96v.5h43.304V301.5H401.5V6.926H262.007V90.96z" stroke="#D8BC47" stroke-opacity=".3"/></svg>