<svg width="478" height="302" fill="none" xmlns="http://www.w3.org/2000/svg"><path d="M1 150.798c0-46.568 9.95-83.176 29.853-109.825C51.027 14.324 81.97 1 123.683 1c41.44 0 72.247 13.459 92.421 40.377 20.175 26.648 30.262 63.122 30.262 109.421 0 46.568-10.087 83.311-30.262 110.229C195.93 287.676 165.123 301 123.683 301c-41.712 0-72.656-13.324-92.83-39.973C10.95 234.109 1 197.366 1 150.798zm155.807 0c0-21.534-2.181-37.685-6.543-48.452-4.362-11.037-13.222-16.555-26.581-16.555-13.631 0-22.628 5.519-26.99 16.555-4.362 10.767-6.543 26.918-6.543 48.452 0 21.804 2.18 38.224 6.543 49.26 4.362 10.767 13.359 16.15 26.99 16.15 13.359 0 22.219-5.383 26.581-16.15 4.362-11.036 6.543-27.456 6.543-49.26zm108.77 80.35c36.532-26.918 65.431-51.279 86.696-73.082 21.265-22.073 31.897-42.665 31.897-61.777 0-6.46-1.499-11.44-4.498-14.94-2.727-3.499-6.407-5.248-11.042-5.248-5.452 0-9.814 2.826-13.086 8.48-2.999 5.383-4.089 13.727-3.271 25.033H264.35c.818-25.034 6.27-45.626 16.357-61.777 10.36-16.15 23.719-27.995 40.077-35.532C337.142 4.768 355.135 1 374.764 1c34.897 0 60.388 8.344 76.473 25.034 16.357 16.42 24.536 37.55 24.536 63.391 0 27.187-8.86 52.759-26.581 76.716-17.448 23.688-39.395 43.742-65.84 60.162H477v72.274H265.577v-67.429z" fill="#AEB6B9" fill-opacity=".06"/><path d="M30.454 40.671l-.002.003C10.464 67.438.5 104.164.5 150.798c0 46.634 9.964 83.494 29.95 110.526l.004.005c20.292 26.804 51.403 40.171 93.229 40.171 41.554 0 72.528-13.368 92.82-40.171l.001-.002c20.26-27.032 30.362-63.894 30.362-110.529 0-46.366-10.102-82.959-30.363-109.722C196.212 14.003 165.239.5 123.683.5 81.857.5 50.746 13.867 30.454 40.671zM149.8 102.53l.002.004c4.325 10.676 6.506 26.749 6.506 48.264 0 21.783-2.181 38.127-6.507 49.075-2.146 5.295-5.386 9.242-9.712 11.871-4.333 2.632-9.791 3.964-16.405 3.964-6.752 0-12.314-1.333-16.714-3.966-4.395-2.63-7.667-6.577-9.812-11.87-4.327-10.948-6.507-27.291-6.507-49.074 0-21.515 2.18-37.588 6.506-48.264l.002-.004c2.146-5.431 5.421-9.478 9.815-12.174 4.4-2.699 9.96-4.065 16.71-4.065 6.612 0 12.069 1.366 16.4 4.063 4.327 2.695 7.569 6.743 9.716 12.176zm115.48 128.215l-.203.15v68.182H477.5v-73.274h-92.406c25.837-16.278 47.339-36.066 64.501-59.365 17.777-24.034 26.678-49.709 26.678-77.013 0-25.955-8.219-47.217-24.679-63.74C435.376 8.858 409.727.5 374.764.5c-19.695 0-37.76 3.781-54.189 11.351-16.451 7.58-29.881 19.49-40.289 35.716l-.003.005c-10.146 16.246-15.613 36.93-16.433 62.025l-.017.517h88.977l-.039-.536c-.815-11.276.283-19.498 3.208-24.751 3.203-5.532 7.416-8.226 12.651-8.226 4.489 0 8.021 1.685 10.647 5.056l.008.01.007.008c2.895 3.378 4.378 8.226 4.378 14.614 0 18.923-10.53 39.396-31.757 61.429-21.239 21.777-50.114 46.119-86.633 73.027z" stroke="#D8BC47" stroke-opacity=".3"/></svg>