<svg width="511" height="304" fill="none" xmlns="http://www.w3.org/2000/svg"><path d="M295.358 95.227c1.119-30.013 10.912-52.988 29.379-68.924C343.203 10.1 368.945 2 401.961 2c21.545 0 39.872 3.586 54.981 10.757 15.389 6.906 27.001 16.467 34.835 28.685 7.834 11.952 11.752 25.498 11.752 40.638 0 18.061-4.617 32.536-13.851 43.426-9.233 10.624-19.725 17.795-31.477 21.514v1.594c33.856 11.952 50.784 34.794 50.784 68.525 0 16.733-4.057 31.475-12.172 44.224-8.114 12.749-19.865 22.709-35.254 29.88C446.17 298.414 427.843 302 406.578 302c-34.975 0-62.675-7.968-83.101-23.904-20.145-16.202-30.638-40.903-31.477-74.104h80.163c-.56 10.624 1.818 18.858 7.134 24.701 5.317 5.844 13.291 8.765 23.923 8.765 8.115 0 14.41-2.39 18.887-7.171 4.756-4.781 7.135-11.156 7.135-19.124 0-10.093-3.498-17.53-10.493-22.31-6.715-4.781-17.767-7.172-33.156-7.172h-14.689v-63.346h14.269c10.633.265 19.586-1.328 26.861-4.781 7.555-3.719 11.332-11.023 11.332-21.913 0-8.233-2.099-14.342-6.296-18.326-4.197-4.25-9.932-6.375-17.207-6.375-8.114 0-14.13 2.79-18.047 8.367-3.638 5.312-5.736 11.952-6.296 19.92h-80.162z" fill="#000" fill-opacity=".06"/><path fill-rule="evenodd" clip-rule="evenodd" d="M2 150.812c0-45.684 9.793-81.673 29.379-107.968C50.965 16.55 81.743 3.402 123.713 3.402c41.97 0 72.748 13.147 92.334 39.442 19.866 26.295 29.798 62.284 29.798 107.968 0 46.215-9.793 82.47-29.379 108.765-19.586 26.295-50.503 39.442-92.753 39.442s-73.168-13.147-92.754-39.442C11.653 233.282 2 197.027 2 150.812zm154.449-54.581c5.317 12.483 7.975 30.677 7.975 54.581 0 24.436-2.658 43.028-7.975 55.777-5.036 12.483-15.948 18.725-32.736 18.725-16.788 0-27.84-6.242-33.156-18.725-5.037-12.749-7.555-31.341-7.555-55.777 0-23.904 2.658-42.098 7.974-54.581 5.317-12.75 16.229-19.124 32.737-19.124 16.508 0 27.42 6.374 32.736 19.124z" fill="#000" fill-opacity=".06"/><path d="M30.153 260.169l.004.005c19.828 26.619 51.09 39.845 93.556 39.845 42.465 0 73.728-13.226 93.555-39.845 19.758-26.525 29.577-63.017 29.577-109.362 0-45.817-9.96-82.044-29.998-108.568C197.021 15.63 165.9 2.402 123.713 2.402c-42.188 0-73.31 13.227-93.136 39.845C10.82 68.77 1 104.996 1 150.812c0 46.342 9.678 82.832 29.153 109.357zM155.526 96.615l.003.007c5.238 12.299 7.895 30.333 7.895 54.19 0 24.39-2.657 42.825-7.898 55.392l-.004.011c-2.44 6.049-6.284 10.549-11.53 13.55-5.263 3.01-12.003 4.549-20.279 4.549s-15.053-1.539-20.388-4.552c-5.318-3.003-9.265-7.505-11.843-13.553-4.964-12.573-7.48-31.012-7.48-55.397 0-23.857 2.657-41.891 7.894-54.19l.003-.007c2.583-6.193 6.502-10.796 11.753-13.864 5.263-3.074 11.931-4.644 20.061-4.644s14.798 1.57 20.061 4.644c5.25 3.068 9.17 7.671 11.752 13.864zm138.832-1.425l-.038 1.037h82.132l.066-.93c.55-7.83 2.606-14.287 6.119-19.42 3.693-5.255 9.369-7.937 17.226-7.937 7.069 0 12.526 2.058 16.496 6.077l.011.012.012.011c3.926 3.727 5.984 9.524 5.984 17.601 0 10.639-3.663 17.513-10.768 21.013-7.094 3.365-15.879 4.944-26.4 4.681h-15.294v65.346h15.689c15.336 0 26.124 2.392 32.576 6.986l.008.006.008.005c6.668 4.557 10.057 11.65 10.057 21.485 0 7.756-2.307 13.859-6.844 18.419l-.011.01-.01.011c-4.244 4.533-10.248 6.855-18.157 6.855-10.452 0-18.115-2.868-23.183-8.438-5.081-5.585-7.426-13.523-6.876-23.975l.056-1.053h-82.243l.026 1.025c.845 33.405 11.414 58.422 31.851 74.858l.005.004.006.005C343.516 294.998 371.458 303 406.578 303c21.375 0 39.853-3.604 55.403-10.851 15.54-7.241 27.447-17.32 35.676-30.25 8.227-12.926 12.328-27.857 12.328-44.76 0-17.039-4.279-31.402-12.893-43.025-8.498-11.467-21.156-20.188-37.891-26.206v-.16c11.668-3.842 22.078-11.053 31.232-21.586l.008-.009c9.424-11.114 14.088-25.84 14.088-44.073 0-15.32-3.967-29.058-11.913-41.181-7.953-12.403-19.725-22.08-35.255-29.05C442.087 4.6 423.608 1 401.961 1c-33.173 0-59.178 8.14-77.882 24.55-18.721 16.158-28.594 39.42-29.721 69.64z" stroke="#D8BC47" stroke-opacity=".4" stroke-width="2"/></svg>