<svg width="22" height="22" fill="none" xmlns="http://www.w3.org/2000/svg"><path fill-rule="evenodd" clip-rule="evenodd" d="M11 1.833c-2.49 0-2.801.012-3.78.056-.975.044-1.641.2-2.224.426-.612.23-1.166.59-1.624 1.057a4.494 4.494 0 00-1.057 1.624c-.227.583-.382 1.25-.427 2.225-.045.978-.055 1.29-.055 3.78 0 2.489.01 2.8.055 3.779.045.975.2 1.641.427 2.224.23.612.59 1.166 1.057 1.625a4.495 4.495 0 001.624 1.057c.583.226 1.25.38 2.225.426.978.044 1.29.055 3.779.055 2.49 0 2.801-.011 3.78-.055.975-.045 1.641-.2 2.224-.426a4.494 4.494 0 001.624-1.057 4.493 4.493 0 001.057-1.625c.227-.583.382-1.25.427-2.224.044-.978.055-1.29.055-3.78 0-2.49-.011-2.801-.055-3.78-.045-.975-.2-1.641-.427-2.224a4.492 4.492 0 00-1.056-1.624 4.492 4.492 0 00-1.625-1.057c-.583-.227-1.25-.382-2.225-.426-.978-.044-1.29-.056-3.779-.056zm0 1.652c2.447 0 2.737.01 3.703.054.895.04 1.38.19 1.704.315.427.167.733.366 1.054.686.32.32.519.627.685 1.054.125.323.275.808.316 1.702.044.967.053 1.256.053 3.704 0 2.448-.01 2.737-.053 3.704-.042.894-.191 1.38-.316 1.703a2.84 2.84 0 01-.685 1.054c-.321.32-.627.519-1.054.686-.324.124-.809.275-1.703.315-.966.044-1.256.053-3.704.053-2.447 0-2.738-.01-3.703-.053-.895-.041-1.38-.19-1.703-.316a2.84 2.84 0 01-1.055-.685 2.84 2.84 0 01-.685-1.054c-.126-.324-.275-.809-.316-1.703-.044-.967-.053-1.255-.053-3.704 0-2.447.01-2.737.053-3.703.042-.895.19-1.38.316-1.703a2.85 2.85 0 01.685-1.054c.321-.321.627-.52 1.055-.686.323-.126.808-.275 1.702-.316.967-.043 1.256-.053 3.704-.053zm0 10.57a3.055 3.055 0 110-6.11 3.055 3.055 0 010 6.11zm0-7.762a4.707 4.707 0 100 9.415 4.707 4.707 0 000-9.415zm5.993-.186a1.1 1.1 0 11-2.2 0 1.1 1.1 0 012.2 0" fill="#E1E1E1"/></svg>