<svg width="196" height="38" fill="none" xmlns="http://www.w3.org/2000/svg"><path d="M28.779 0v7.261h-9.858v29.945H9.858V7.261H0V0h28.779zm23.522 37.206l-7.738-14.045h-2.172v14.045h-9.063V0h15.21c2.933 0 5.424.512 7.474 1.537 2.084 1.025 3.639 2.438 4.663 4.24 1.025 1.767 1.538 3.745 1.538 5.936 0 2.473-.707 4.682-2.12 6.625-1.379 1.943-3.428 3.321-6.149 4.134l8.587 14.734H52.3zm-9.91-20.458h5.617c1.661 0 2.898-.406 3.71-1.219.848-.813 1.272-1.961 1.272-3.445 0-1.413-.424-2.526-1.272-3.339-.812-.813-2.049-1.219-3.71-1.219h-5.617v9.222zm48.672 13.886H77.177l-2.226 6.572h-9.487L78.926 0H89.42l13.462 37.206h-9.593l-2.226-6.572zm-2.332-6.996L84.12 10.017l-4.558 13.621h9.169zM141.906 0l-13.197 37.206h-11.342L104.17 0h9.646l9.222 28.09L132.313 0h9.593zm12.851 7.261v7.526h12.137v6.996h-12.137v8.162h13.727v7.261h-22.79V0h22.79v7.261h-13.727zm28.674 22.949h11.872v6.996h-20.935V0h9.063v30.21z" fill="#E1E1E1"/></svg>