<svg width="960" height="905" fill="none" xmlns="http://www.w3.org/2000/svg"><g filter="url(#filter0_d)" fill="#496772"><path fill-rule="evenodd" clip-rule="evenodd" d="M846.18 302.698v.363l1.352 1.291-1.13-3.893-1.433-2.945.021-1.11.847-2.238.868-1.13.969-.262.767.322 1.675 2.582.988 2.804 2.665 1.089 3.471 2.38 2.482 1.13-1.271-3.005-.021-1.775.606-1.231 1.595.283 1.554 2.319-.647 1.493.162 1.15 2.967 4.215-1.392 9.42 1.23 2.542-.262 3.389 1.453 2.945 1.777.968 1.633.242.626 1.432 1.494 1.13 1.05 3.025 1.554.847h.726l1.029.726 2.321 2.865 1.493.444 1.171.927-.343.545.141.666.606.242 1.069-1.049.041-1.291.525-.504.969.282 2.28 2.622 3.189 2.844 1.674 4.983 2.665 4.357 3.189 2.44 3.087 1.211 1.09 1.25.645 1.553.223 2.885 3.592 5.951 3.008.907 2.159.142.847 3.549-.262 2.138-.888.908.121 2.824.484 1.352.727.686.666.181 1.17 2.864 3.149 1.432.081.586-1.05 2.279-1.433 5.85.404 1.573.544 7.201.606 1.472.303 8.613-1.352.424-1.332 1.876.666 3.348 2.401 1.856 1.776 2.219 1.373 4.7 1.856 2.602.647 1.755-.485 3.288 1.09 2.743 1.009 1.412-.054.044 1.548 1.408.302 1.634-.706 5.386.404 2.824 1.009 1.371-.404 5.003-3.451 4.518-2.422 7.1.606 1.755-2.442 13.898-1.07 4.075-4.077 11.457-.283 6.757.344 1.231.767.101.383 1.552-2.24 7.504-.424 2.965-2.301 7.605-1.937 3.953-4.44 5.608-1.01 2.622.647 3.409-.263 3.611-3.814 3.227-1.635 1.896-3.37 2.098-.182 1.11.545 1.169-4.198 1.473-3.088 1.593-3.128 4.7-2.079 5.144-.484.403-1.11.081-1.029.827-.223 1.19.929.827-.706 2.804-2.503 3.348-.948 7.06-.525 1.896-.788.605-1.271-.141-1.716.686 1.212.323.887.827-1.775 2.884-1.978 1.473-1.958 2.884-2.059 5.991.889 1.089-1.09 4.962-1.413.888-.443 1.533.766 2.239 1.534 1.593-.343 1.775-.586.505-.726-.787.262-.545-.302-1.23-.586-.06-1.392.867-.162.888.565 1.371-1.231 1.372-2.34 1.291-1.192 2.239-.121 1.129-1.614 4.68-1.11 1.795-4.238 9.279-.545 4.619-.04 5.85-1.272 1.654-1.17 6.495-1.252 4.538-1.392 3.51.1 3.974 2.18 2.521.283 1.896-.021.908-.645-.202-.929.686.041 3.187.726 3.106-38.85-19.566-1.978-.161 1.776-3.066.223-1.956-2.019-4.115-1.393-1.775-1.129-8.916-2.382-1.513-3.673-1.573-1.877.726-3.088-.585-2.038.343-.044.054 2.002-.337 3.087.585 1.877-.726 3.673 1.574 2.382 1.512 1.13 8.916 1.393 1.775 2.018 4.115-.223 1.957-1.776 3.066 1.978.161 38.85 19.566-1.715 1.089-2.502.222-2.463 3.752-1.978 1.008-2.664 1.312-3.229.322-10.595.061-3.673.524-3.613-.141-4.057.283-7.568 2.239-4.48 2.218-4.783 3.631-3.694 3.449-3.491 3.47-5.328 6.192-2.098 1.856-4.905.625-4.803 1.211-1.716-.545-1.998.121-.908.383-.767 1.15 2.443 4.458 2.522-1.775.464-1.695.787.363.323 7.585-1.292 1.634-.686.343-1.03-.485-.605-.907-1.594-4.176-2.301-2.884-1.695-.726-1.069.343-.304.867-2.159-.181-1.776-3.591.525-.847-.686-1.291-1.938-.303-1.513 1.009-1.11.181-.908-.524-3.29-3.328.363-2.602 1.937-.807.768-1.352-1.534-3.509-.908-.585-4.138.302-.928 3.107-3.996 4.114-1.938.384-.887-.142-3.068-3.57h2.603l2.301-1.029 3.209-5.647-.707-2.603-2.704-4.175-1.271-.646-2.039.929-2.927 2.803-3.591 2.683-3.088.323-.384.383.121 1.009 3.027.524 1.696-.585 1.009-.746 1.514.423.322.807-.241 1.231-1.13 1.734-.545.404-1.878-.444-3.37.726-.706.424-6.6 4.458-4.803 5.91-2.422.665-.807.565-.484 1.231-2.846 2.097-.828-.222-1.352-1.593-1.231-.726-4.541-1.453-1.029-1.048-1.857-1.15-1.675-.222-3.694-1.493-5.872-4.538-3.411-1.352-2.422.585-.404.464-1.978-.04-2.138-1.231-2.139-1.775-3.149-.686-1.534-.02-1.574.444-1.292 1.089v.868l.666 1.311-1.735.484-2.563-1.251-1.897-2.299-3.815-3.57-1.958-1.291-2.966-1.372v-.049l-2.483-.254-1.736.525-1.593-.061-3.694-1.976-3.814-3.833-2.583-5.224-2.563-3.893-1.575-1.11-1.231.061-3.936-5.285-1.372-2.743.686-1.412-.06-1.11-1.03-2.561.404-2.522 1.554-1.291.848-2.178-.021-3.651-.807-2.885-3.834-9.339-6.055-8.068-3.996-4.297-2.341-1.896 1.07.343 5.974 5.224 3.955 5.426 1.676 3.45-.243-1.876-1.009-2.844-.828-1.231-2.603-3.005-7.629-7.302-.04-2.381 1.352-.544 1.655 1.432-.201 3.369.343.464 2.058-.222.565-2.34.262-3.57-.363-2.562-3.148-1.553-1.695 1.674-1.211.363-1.292-.06-1.11.484-.444 1.089.221.706 1.252.403.424.525-.989 1.271-5.913-.505-1.554.646-1.312 1.593-1.19.827-7.913.424-1.795-1.352 1.312-2.32 2.906-1.452 3.35-3.61.626-3.53-.263-.928.223-1.694 1.069-2.34-.727-4.317.505-2.38-.182-1.17-1.332-2.3-3.512-4.296-1.211-4.357-2.785-4.74-.524.121-1.332 3.106.585 1.17-.323 1.11-2.078 2.138-.767 2.642-.304 4.922-2.764 8.996-.02 2.219-1.615 1.311-3.108-1.412-1.594-.403-.848.161-4.117 1.553-.928 1.513-.525.343-3.047-.464-1.696 1.493-1.251.464-.706-.343-.626-1.049.807-1.311 1.494-1.473.524-1.271.364-3.751 1.028-1.513 1.837.726 1.878-.504 1.937-.121.383.605 1.877.847 1.09-.585.444-1.109.969-6.334-.384-4.942.262-4.902-.907-3.328.322-.444h1.07l.646-1.25 1.109-3.672.183-1.896 3.834-4.901 2.462-2.421.929-.262.363-.948-.707-3.086-2.219-4.256.665-1.977 1.251-.888 1.171-.463 1.413-.041.605-.484-.161-1.331-.666-1.271-1.191-.504-1.271-5.769-1.151-2.562-.605-3.126-1.171-.888-.181 4.216.504.282.505.888.141 2.763-.726 3.752-1.15.061-2.786.887-2.341 2.542-2.26 4.498-.121 2.158-.404 1.21-3.31 6.193-1.494 1.251-2.663.1-1.554-.948-1.433 2.138.403.283-.848.887-6.216 3.288-3.652 2.865-1.251 1.29-.121.848-1.09 2.057-2.18 3.51-1.776.787-1.877 3.207-2.261 1.412-1.352 2.683-1.554 4.699.545.263.969-.121 2.927-2.058.302 1.392-.343 5.224-1.049.444-.586-1.109-1.837-2.038-1.311-.806-1.372.201-.969 2.28-.787-.021-.828-1.593-2.885-3.772-3.25-3.349-1.716-1.371-.705-.222-2.261.787.868-2.401 1.251-1.795.101 1.654 2.866 3.066 1.15.787 2.18-.706-2.221-.888-.281-.827-.122-.686.363-.806-.969-5.447-1.675-4.458-.262-2.985-1.473-2.279-3.511-3.954-4.219-3.429.606-2.521-.223-1.816-1.09-3.106-2.219-4.579-2.503-.968-4.056.645-1.736.989-1.332-1.493.02-.665-1.614-4.297-2.665-6.051 1.756.121.869.807.302 1.311 1.494-2.037.443-1.332-.443-2.299-1.554-2.199-1.373-1.19-.626-.101-3.47 1.089-1.413 1.352-.828-.162.04-2.097.626-1.433 1.11.444.363-.605-2.725-3.792-2.199-1.291-1.373-1.23.243-.948-1.493-.464-.545.443-.323 1.312-1.797 1.129-6.983-.484-.666-.161-1.533-1.655-2.018-.726-3.089-2.924-1.049-.565-4.399-.525-2.099.424-1.635 1.513-1.897.665-1.373.101-1.514-.383-3.693-3.732-5.651-4.094-8.86-4.579-4.743-1.775-.726.08-2.24 1.816-3.693 1.432-1.11.141-11.625-.867-2.502.08-4.662.364-2.14.544-13.28 1.13-5.045.827-4.541 1.977-5.227 3.045-8.134 3.692-3.732 1.492-6.015 1.17-8.819 3.409-4.602.807-9.587.444-6.296-.605-4.824-1.392-2.422 1.19-2.118-.464-3.634 1.977-6.377 5.244-1.554.686-3.108.666-6.72 3.711-2.543 2.28-2.907 1.754-7.528 1.231-2.644 1.049-2.018 1.654-1.836 2.34-2.28 6.616-1.03 4.337-2.099 1.472-1.978 2.078-.747 1.492-.019.706-.969 1.069-3.289 2.24-3.775-.283-.565.222-1.312 1.775-1.009.767-1.493.484-1.473-3.47-1.817-.766-3.794 1.291-2.523-.363-2.987.12-.403.404-3.129.323-1.735-.343-1.231.484-.787.908-.243 1.331-2.906.302-.847-.282.464-.988-.646-2.28-1.272-1.633-.443-.162-1.696.303-1.21 1.149-1.777.505-5.651-2.038-1.352-.1-2.744-.061-6.237 1.089h-4.137l-1.554.827-5.51.767-2.705 1.492-3.592-.907-5.428-.283-4.198 1.291-1.615 1.775-2.684 1.433-1.151 1.311-1.816 3.187-.303 1.613-3.108 3.046-2.563 1.513-2.845-1.009-3.674-.343-3.774 2.562-.443.666.766.847-.766.868-1.776 1.089-3.532 1.15-1.292 1.331-.666 1.755-2.321 1.734-4.379 2.34-5.349.969-.08.544.525.565 3.027.666-1.352.766-1.655-.302-1.635-1.292-1.251-.463-1.373.08-.686.484-.504 1.836-1.676-1.331-4.4-1.856-8.375-.04-1.15 1.069-.504.02-3.249-1.049-2.685.423-3.108-.887-5.328-3.55-5.328-1.231-1.312-3.086-2.18-2.521-3.632-3.712-3.33-2.218-3.976-2.078-1.595-.182-1.594.384-1.01 1.311-2.482-2.643.021-2.279-1.15-8.149-.08-4.559.947-4.397.929.262 1.352 2.017 2.603 1.11 2.08-.182 1.775-.645.726-.424 6.197-8.916-.949-7.342-1.635-8.068.505-1.755 1.675-2.078-.08.827-1.252 1.392-.04 1.049.887 2.521.606.908.403-.282-.04-1.413 1.009-3.711-.646-6.495.505-3.328-.383-2.481.12-5.184-.827-4.539-.524-1.432-5.348-9.743-1.514-4.518-1.272-2.945-3.128-5.446-2.644-6.757.162-.686-.686-5.124-1.454-5.002-.444-.383.102-9.783.787-4.579-1.09-3.813-.566-.907-.343-2.34-1.15-2.723-4.723-5.608-.605-1.835-.162-4.075-1.775-3.59-4.28-6.395-1.654-1.008-1.696-2.421-1.311-5.91.283-1.835.726-1.715-.424-2.561-1.07-3.732-2.986-6.193-3.027-5.668-4.683-6.757-6.68-7.101-1.231-3.892 1.009-2.018-.141-2.239.08-.585.424-.302.363 4.72.666 1.372.687-3.873 3.25 4.014.443 1.311.263 4.135.504 1.493 1.614 2.057.686.141.061-.625 1.413-.968.928.221 1.575-2.339.12-4.156-1.574-2.097-3.007-1.977-2.22-2.299-1.271-5.245-2.22-3.591.383-1.997 1.332-2.117.626.464 2.038 3.671 2.32 1.996.809 2.28-.525 2.864-.605.666.06 2.057.645 1.876 1.11.101.748-.806 1.755-3.39 1.15 5.689.606 1.553 2.422 3.247 2.744-2.158.586-1.956-.666-.949-.424-1.714.747-4.7.767.363.383-.746.02-2.965-4.904-5.184-2.603-4.881-2.382-6.032-2.321-1.412-1.978-5.607-.181-1.069.242-2.179-1.353-2.239-2.764-3.227-.787-2.299-.121-4.741.888-2.3.484-2.945 1.877-6.051 1.513-3.026 3.108-2.44.545-2.037.303-2.723-.484-3.147 1.271-3.873-.242-2.3-1.19-3.287-1.797-2.542-.322-1.916 3.148-6.374 2.926-8.412 2.12-3.146 1.29-.727 1.616-.282.282.565-1.09 2.057-1.07 6.193 1.413 2.985-.686 4.357.949.968 4.783-2.017.605-2.521 1.332-3.409 3.613-6.273.565-1.937 6.397-3.55 2.402-.182 4.218-2.097 4.52-1.735 3.674-4.336 1.332-1.029 2.765-1.191 2.603-3.913 5.146-2.4.566-1.492 1.392-.767 1.333-.162 3.632-1.291 2.866-1.775 2.22-1.876 1.776.384.949.948.968.262 4.178-2.239 2.16.746.705.807 1.535.686 1.635.302 1.392-.02 6.115-1.25 3.612-1.574 4.803-4.619 2.403-1.432.302.585.929.02 6.801-1.129 2.462.141 3.148-1.049 3.27-3.913.646-1.755 2.199-1.675 2.382-.221 5.369 1.331 3.229 1.251 4.46-2.3 9.949-1.452 2.139-.706 11.867-4.942 3.27-1.694 5.469-4.559 4.642-6.273 3.31-7.121 3.027-4.074-.262-1.856.787-1.735.524-.504 1.433.343 1.09-.585 1.615-1.291 1.171-1.715 1.352-.665 4.581-3.611.666-1.613-.121-1.251-.646-.605-1.736-.485-.989-1.472-.241-4.316-1.292-3.349.06-4.458.687-2.723 1.795-3.086 2.685-2.541 1.493-.948 2.785-.021-1.109-2.481.928-1.25.605-.242.485.464h.524l2.463-.848.221-.645-.564-.827.524-2.199.626-.706 1.15-.242 1.151-1.271.121-1.25.464-.747 1.554-.564 1.493 1.492-.464.585-1.09-.121-.726 2.521 1.392 1.897 1.676 1.048.443 1.735 4.198 7.847 5.388 8.613.485 1.876.403-1.997-.746-1.452.081-1.796 1.21-3.671-.988-3.026.403-1.734 1.393-.04 2.785 3.368 1.614 1.452.788.343.545-.302-.848-.404-1.009-1.25-.787-3.147 2.078-2.38-.726-.384-1.676.505-.342-.242-1.07-2.28-2.401-2.602.121-2.481-2.463.041-1.675-1.513 1.494-.061 3.228.727 1.494-2.26.182-1.169-.222-.888-2.442-.484-.787-.706-.06-1.997.302-.646 3.411-.746 1.756 1.372-.485 1.069-1.13.302 2.341 2.461 1.15.242.04-.887 1.575-2.138 2.664.383 1.171.524.585.383.787 1.876.605.424 2.261.121 1.13-1.291 1.998.968 2.26.222 3.29-.464 2.341 1.029 1.252-.524-1.696-.162-2.583-1.21-1.797-.424-1.15-.08-1.796.524h-1.352l-.383-.403-.545-2.441 1.19-2.703.888-.201 1.049 1.593 1.635-1.13-.161-2.077.646-2.361 2.462-2.481-1.231-.504-1.191.343-1.776 3.026-1.029.02-1.918-1.654-.626-4.438 1.878-4.296.686-.303 2.039 1.17 1.634-.847.384-.565-.243-4.336.929-.223 4.541 2.32 1.776 1.715 4.116 1.997-2.3-2.038-.121-.504 1.05-1.916-.464-.484-1.878-.02-2.179.807-.242-1.292.807-1.129.848-.404.625.404.868-1.493-.686-.181-2.866 1.896-.605-.02-.646-1.715.706-.908.949-.443 1.291.383.464-.141 1.151-.807-.323-.767 1.312-.927 1.513 3.409.384.241.222-.968-.283-1.936 2.583 1.513.061.807.868.423 2.038-.101.444-.423-.383-.323-.667.06-.584-.524.645-.625-2.381-1.695-2.159-1.069.726-.847.585-.202-2.341-3.469 2.362-3.368 2.038-1.695 1.15.484 4.4.101.222-2.743-.424-2.643.283-1.512.564-.424 2.422 1.15-1.897 8.028.404-.424 1.353-4.66 2.643 1.352-.404 2.421.424.786 1.292.807 1.938-2.158 1.028-.727.626-3.852 1.675-3.409.081-1.412-1.433-3.671-1.392-.887 1.09-.243 1.755.263 1.513.766-.181 1.695-1.13.484.747 2.46.928.262 1.171 1.191.564-.888-.403-1.19.868-2.017 2.139-1.695 1.554-.221-1.029 2.521 2.483 3.208.706.201 2.26-2.38 1.877-3.409-.949-3.954 2.463-.988 2.139-.505 1.352 1.09 1.252 1.614-.384.847 1.554 1.916.545-.867.02-.726 1.918-.081 4.015 1.291 2.099 2.965 3.008 2.017 6.559 9.117.948-.464 3.713 3.188.404 2.198-1.049 1.513-1.554 5.244.221 2.38-.141 4.297-1.15 2.299 1.05-.604.605-.848.767-4.962 1.09.444 1.655 1.634.646 2.138.1-2.179-1.473-2.561-.706-2.824 2.502-3.429.445.08.585 2.885 2.078.061.222-1.029-.867-1.574-.687-2.965 3.25-.928 10.171 2.542v.127l1.817.599 2.099 1.815-.242 4.115.362.444 1.434-1.775-.828-5.466.243-.504 2.259.624 2.827 1.433 4.52 5.043.181 1.089 1.211-.464-1.493-1.957-.808-1.674-.282-1.674.484-.948.243-1.513 3.37.585 1.392-.464 1.756-1.694-3.915 1.23-1.978-1.271-1.574-2.057-.363-1.049.807-.403 1.736-.182 1.432-1.009.081-.484-2.461.828-2.625-.484-1.856-1.07-2.119-2.017.262-1.795 1.312-2.501 1.352-1.795 5.268-3.309 1.19-5.607-.121-1.03 1.03-4.053 1.554-1.614.201 1.412.768.444 2.118-.383 2.685-1.816 2.199-2.32-.221-.826-1.373-1.877-.747-.625-.746-.161-.182-.484.202-3.954.363-.988.908-.404.303.565.646.303.828-.182 1.412-1.008.565-1.23-.202-2.966.222-.746 3.391-1.513 2.018 2.3 1.938-.142-1.857-.544-.626-2.36.586-1.433.161-1.775-.666-.504 1.069-.444 3.108.989 2.785 4.7v-.727l1.252-1.593-3.028-2.037.686-1.594.849-.424 3.087.102.202-.707-.222-1.916-.606-1.19.566-.827 1.957.101 2.18 1.412 2.866.141 2.018 1.452 1.231.182 9.607-.645 2.865.907 3.532-2.42 3.008.06 1.231 2.34-.747 1.614 1.19-1.21.162-.525-.444-2.602.424-.787 2.926-1.049 2.301.847 1.453-.12-.847-.101-1.554-1.15-.243-1.029.162-6.394 1.231-1.936-3.31-2.461-1.11-1.574-.909-.565-1.654-.302-3.129.524-2.704 1.452-.424-.04-2.118-2.118-.424-1.452-2.301-1.23-2.059.181-.141-.242 2.402-2.864 2.421-1.11 2.321 2.28 1.655 3.913.848.08.666-1.21-.949-2.945-1.009-1.815.768-.181 2.078.705 1.413-.746 3.572 2.985.222.968 3.471 4.438 1.191.263 1.009-.787 2.24-3.349.949.081 1.715 1.836 3.29 5.95.807.645 1.493.444 1.232-.827h1.089l1.11 1.614 3.109 1.311 1.493.04 1.07-.342 2.118-1.15.808-1.09 2.381.404.243.686-1.514.867-.343.524.101.545.686.646 1.574.665 1.211-.564.646-.848.504-.08 2.967 2.259-.263.423.303 1.796.425.343 3.571-.525 1.13.464 2.08.182 1.816-.222 1.614-1.231 2.16-.12 2.18 3.025 2.764 1.432 1.897 1.573 2.382.222.847.384-.121-.424.889-2.3 1.352-1.35 1.13-.485 1.271.564 3.249-.383 1.676-1.351-.505-.283-1.251.747-.222-.545.464-1.674 2.018-.545 1.493.04 2.786-2.218-.081-1.553.807.02.747.867-.666 1.07-3.734 3.166.929 1.09-2.523 2.581-.101.706.424 1.05 1.029.968 1.11-.485.323-.907 1.796-1.473 3.048-.888-1.857 2.34.747 1.13 1.615-.746.383.665-1.756 2.542.605 1.493.646.605.908-.585 1.656-.182.302.525 1.514-.142 1.17-.907 1.534-3.893-.586-.767-2.078.263-1.332-.565-.101-.545 2.281-2.259 3.713-2.481 2.442-.444-.505 1.674 1.373 3.853 1.554 2.26.989-.021.848-.605-.061-.484-1.433-.525.121-.423 1.776-.444 2.22 1.13 2.24 3.025-3.814 2.663-1.292 1.492-2.22 3.57-.504 2.704-2.765-1.029-.222 1.493 1.352 2.5-.02 2.16-.364 2.117-1.533 2.3-.202-.707-1.776.606.081-3.974-.344-.343-.686.161-.868 2.34-1.876 1.634-.888.06-.303-.867-1.07-.423-2.28.887-1.454 1.19-.787 1.352.061.625.888.686-.585 1.311-.969.807-.404 2.521.949 2.804.847.464 1.212-.303.949-1.068-.122 1.673-.687 2.341-1.392 2.137-.605 4.055-.606 1.17-2.543 1.715-2.886 3.731-1.776 3.066-.04 1.634-2.744 1.856-.888-.021 1.352 3.914.928 1.392 1.453 1.23 2.805 1.008 3.976 2.542 2.038 1.856 5.873 3.046.626.544.524 2.764 1.212 1.412 5.449 2.602 2.24 1.855 2.038 2.219 5.792.242 2.321 1.211 5.086 3.61 2.603 1.11 1.212-.041 2.26.747 1.998.988 2.664 4.236 3.108 2.643v220.954h.02V163.659l4.258 3.469 2.099.807 4.3 1.028 3.349-.201 1.05.766 3.41 1.432 3.674.525 2.866 3.973.464 2.945 1.109 2.139 1.05 1.028 1.675.585 2.2.263 2.16 1.432 1.776 1.795 4.339 1.251 1.493.887 2.119 1.896.868.363 2.483.141 5.792-1.049 3.007-1.109 1.877-1.009 3.027-2.339 1.655-.585 1.15-2.098 1.232-4.76.322-3.409 5.207-6.758 2.018-4.558.647-3.308 2.442-6.415-.566-3.812 1.311-8.351 3.815-8.734.687-2.764-2.16-5.93-.988-6.353.322-1.857 1.251-3.206.162-2.502-.485-1.755-2.199-2.622-.182-2.703 1.595-6.616 3.208-6.233-.242-.988-1.009-1.13-.989-3.873.182-.645.282-.505 2.24-1.411.848-1.03 1.07-2.964 1.312.403.706 1.21.02 1.795.928 1.412.183-.948-1.232-3.59-.969-.706-2.664-3.994.646-.524-.424-.323-1.433-.1-.181 1.31.686.928-1.271.403-.767-.342.04-.505 2.058-4.457 1.918-2.643-.343-.766.988-2.824.949-1.412.949-.424.545 2.663 2.34-.464.183-.545-1.777-1.735-.081-.907.485-2.582 3.37-9.682.788-4.942-.445-3.893.202-.545.807-.585 3.472-.605 1.231-1.634.989-2.481 1.634-.06 2.059.968-.686 1.048-1.453 1.332-.161 2.037 1.392-1.775.787.06 2.967 2.522.949 2.078 1.695 6.898-.565 2.663.605 4.538-.162 2.602 2.382 2.098 1.514.121 1.433-.645.625.242 1.474 1.614-2.12 3.408-.443 1.877-.102 2.44 1.13.323.687-.181 1.938.948.605.665.08 2.34.969 1.008.828.081 1.493 1.13-1.211 2.804-.282 2.36.948.484 2.16-.242.222.443-.343 4.902.504 4.599.162.807.867.827.566 1.21-.183 2.098-1.23 5.164 1.554 4.034 1.856 1.956.283 3.631.848 3.006.989 2.118.746.807 1.575.847 2.724.02 3.108-2.421 6.175-2.823.909-2.038.868.202 1.372 2.057-.262 2.138 1.049 2.844 1.373 1.634 3.309 1.271 1.494.101 1.372 3.046 5.409 2.44 2.401 1.877-.141 1.331-1.654 2.924.08 1.332.868 1.432.283 1.674-.888 2.602 1.231 2.441 1.19 4.054v4.095l1.111 1.109 1.15 2.683-.364 4.64-.827 1.149-.142 2.34.202.666 1.151.726 7.488 9.339.726-.605 2.038-.343.525.646-1.695 3.207.101.706 1.554 2.662 1.715 4.015 1.171 4.296.403 3.167-.403 2.178.322 2.34-.141 1.513-2.018 4.276.162 2.199 4.439 5.809 2.665 1.009-.162 2.562-.989 2.299-.282 2.44.201.767 1.272 1.695 1.917 1.492.545 1.049 2.563 1.674 1.958.928 2.402.061 2.684 2.683 1.493.06 2.604.847 1.473 1.392 2.503.524 3.915-.302.322-.686-.988-1.714 1.251 1.432 2.119 3.812.868 4.437.524 1.07 1.111 1.19 1.19.282 1.01-.242-.343-1.876.161-.807 1.332.02.646.686.262 2.562 1.05.989 1.311.564 2.745-.121 2.705.787 1.735 2.098-.706.282.181.625 1.292 1.594 1.735 1.412 1.151-.505.081-1.371-.687-.625.304-.807 1.513.565 3.309 2.965 2.099.383.747 1.029 1.393 3.913.828.222.666 1.855-1.232-.302-1.05-1.069-.888-.424-1.069.444-1.615 1.997 1.353 3.631 2.643 2.763 1.575 1.089 2.341.828 2.906 2.259 1.191 1.513-.222 1.734.767 2.905 1.09.928.847 2.783 1.252 2.199 1.251 1.19-.283 4.458 1.998 7.141 1.513 3.67 1.394 1.997.948.767.061 2.4-.666 1.009 1.473-.746 1.171-.968.545-.908 3.43 4.256zm65.067 139.281l3.55.238-.018.024-3.613-.241.081-.021zm-7.69-.363l3.592.787-.08.02-3.592-.787-1.433-1.472-.921-.134.033-.027.969.141 1.432 1.472zm-18.204 15.391l1.333.636-.061.029-1.352-.645-.807-1.553.08-.02.807 1.553zm-9.162 5.305l.484.222-.081.02-.484-.222-.888-1.977-.262-3.792-5.59-4.821-5.531-2.521.081-.02 5.53 2.521 5.591 4.821.262 3.792.888 1.977zm-19.234-12.526l3.653.1-.081.021-3.652-.101-1.514-1.029-1.675-1.735-.606-.141.081-.02.606.141 1.674 1.735 1.514 1.029zm-18.567-1.311l1.917.564-.08.021-1.918-.565-.343-.726-.565-.101.081-.021.565.101.343.727zm-14.611 9.823l-.041.02-171.587-.02-1.286.01 1.307-.03 171.607.02zm-174.271-73.665l.04 73.647-.061-73.647h.021zM787.679 640.97l-1.943.179-3.674 1.291-2.946-.202-4.884-1.533-1.958-1.533-2.26-.343-1.373.182-.054.057 1.346-.178 2.26.343 1.958 1.533 4.884 1.533 2.946.201 3.674-1.29 1.978-.182.046-.058zm-19.844-1.135l-2.261.971-4.541-.403-6.257-1.191-1.533-.645-2.584-2.481-1.594-1.251-.545-.06-1.655.363-.081.06 1.655-.363.545.061 1.594 1.251 2.584 2.481 1.533.645 6.257 1.19 4.541.404 2.301-.989.041-.043zm-22.888-3.648l-1.916-.182-.747-.605h-2.685l-2.744.706-.042.051 2.706-.696h2.684l.747.605 1.918.181.079-.06zm-9.006 5.954l-3.789 1.065-.847-.222-2.704-1.573-4.602-5.386-1.13-2.582-.505-.524-1.251-.403-2.22-1.977-1.696-2.34-3.753-1.997-3.371-2.562-1.554-.564-.908.201-1.352-1.008-.363-.565.505-1.533-.849-1.311-1.775-.444-1.635-1.008-1.009-2.219-.586-3.329.525-2.642.02-1.674-.282-.424-4.662-2.541-3.27-.222-2.582-1.049-.304-.726-1.372-.908-1.251.424-.031.043 1.202-.406 1.371.907.304.727 2.583 1.048 3.269.222 4.663 2.542.281.423-.019 1.675-.525 2.642.585 3.328 1.009 2.219 1.635 1.009 1.776.443.848 1.312-.505 1.532.363.565 1.353 1.009.908-.202 1.554.565 3.37 2.562 3.754 1.997 1.695 2.34 2.221 1.976 1.25.404.505.524 1.13 2.582 4.602 5.386 2.704 1.573.848.222 3.874-1.089-.005-.037zm-50.679-35.127l-1.829-.358-.746-.867.06-.524-1.171-3.127-1.897-1.755-.1-3.792-3.048-5.123-1.756-1.211-2.523-1.15-3.43.706-3.249-.847-1.938.747-.029.041 1.886-.727 3.249.847 3.431-.706 2.523 1.15 1.755 1.21 3.048 5.123.101 3.793 1.897 1.754 1.17 3.127-.06.525.746.867 1.858.363.052-.066zm-22.918-15.576l-1.01.534-.383-.525-2.442-1.492-3.593-1.675-3.774-.282-.665-.182-1.03-.988v-.02l-.565-.726v.147l.484.639 1.03 1.009.665.181 3.774.283 3.593 1.674 2.442 1.493.384.524 1.069-.564.021-.03zm162.466 45.388l-1.637-.821.524.444 1.113.377zm.973.33l.115.039 1.049-1.633-1.164 1.594z"/><path d="M914.193 379.711l-.949-.201-.887-1.191-1.191-4.336 1.171-2.865 1.473-2.441-.021-2.077-.302-.525.908-1.896 2.281-1.835 1.009-1.977.181-1.069-.222-.827-1.311-2.138-.424-.242.827-1.533 1.877-1.23.181 4.921.505 1.11 1.049.685.222.848-5.348 12.586-.969 3.167.324 1.957-.384 1.109zM608.922 168.338l-.222-1.331.585-2.32 1.252-1.735 1.836-1.391 3.795-.464 1.19-.646 4.218.686.121 1.331-.948.444-1.434.303-.948-.767-2.018.807.323.706-1.353 2.239-2.442.928-3.168.585-.787.625zm264.645 163.164l-1.191-1.109-.847-1.876-1.474-1.332-.847-1.896-.202-1.654.969-.221 3.067 1.936.424.706 1.413 2.703.262 1.856-.585.706-.989.181zM765.392 207.914l-1.513-.585-.424-2.098-.969-1.311-1.009-.484-.545-1.009.908-.222 3.108 1.453 1.816 2.622-.645 1.251-.727.383zm155.925 218.997l-.383-.847.121-2.097.848-4.801.847-.202 1.514.262-1.453 4.801-.464 2.764-1.03.12zm.404-9.036l-1.453-4.075v-3.308l1.877-1.029.484.364-1.131 4.276.223 3.772zM675.421 34.06l-1.372-1.11-.101-1.392 1.312-.868.908-.18 1.07 1.613-.141.827-1.05.262-.626.847zm2.119-11.176l-1.514-.645-.464-.726.848-1.291 1.211-.222.726.343.505.887-1.312 1.654zm-62.483 154.208l-.626-1.311 2.241-2.097 1.13.806.363 1.675-2.583-.061-.525.988zM427.365 58.224l2.14 1.775 3.713-2.783 2.705-1.735.706-.101 5.59-5.87-.181-1.674-2.421-3.187-3.21-1.291-1.453 1.15-.263 1.11.747 1.875-.1.565-1.131-1.614-.444-1.513-.666.06-2.562 1.977-2.301-.988-1.192 1.11-3.066.725-2.887-.907-.908-1.473-3.047-2.662-.465.363-.161 1.634 1.171 4.337 1.634 4.296 4.037 3.167 4.015 1.654zm132.838 51.255l-.344.565-.807.746-2.925-.444-.626-.544-.041-2.078 1.352-3.005 1.15-.747 2.16-2.219-.161-.827-.647-.464-.726.202-.403.545.222.766-.726.767-2.08-.364-.807-2.339.848-.585.161-1.029-.949-.06-1.836 1.532.626 1.412-.706.545-2.968.565-.625 1.069-.505 1.876.162 1.654-.767 3.852 5.57 1.393 2.603-.384 3.028.807 1.151-.444.564-2.824-.948.061z"/><path d="M415.66 56.369l3.633 1.391 2.664-.323.505-1.109-1.635-1.472-1.554-.404-3.229-8.069-1.938.404-1.796 3.126.363.948.061 3.087-.807.787-.828-.04-1.009-.606-1.211 2.199.161.585.343.544 1.211.242 5.066-1.29zm135.4-8.129l-.08 1.028.787-.08.484-.444 3.572-5.003 1.07-4.115-.989.525-1.876 3.792-2.968 4.297zm-86.337-2.139l.645.686.626-1.512.04-2.18-1.049-3.448-1.675.645.645 3.691.768 2.118zm97.074 100.19l1.251.928.283-.02.565-1.432-.827-2.683-.989-1.231-1.252 1.231-.403 1.17 1.372 2.037zm-17.377-44.215l-.06.807.848-.323.726-1.17.303-1.432-.969-1.31-.928-.162-1.917 1.512-.202 1.876.343.424h.928l-.343-1.069.565-.384.706 1.231zm-.464-48.633v1.03l4.158-2.179 2.199-1.674.202-1.11-2.906 2.26-1.654.08-1.999 1.593zm6.923 89.338l.565.283 1.372-.263.384-2.481-.626-.282-1.252.847-.443 1.896zM39.894 387.639l.645.524.445-.888-.445-1.593-2.22-4.035-2.583-7.382-.08-.666.443-1.069-1.09-.262-.867 1.251-.142 2.117 1.01 3.793 1.634 3.288 3.25 4.922zM288.292 137.9l.182.625 2.704-1.008-1.897-3.167-1.433.585-.545.867-.181 1.009 1.17 1.089zM87.18 262.477l.746.625.727-.565 1.272-1.976.1-.707-.302-1.593-.262-.141-.727.444-2.24 3.025-.021 1.231.162.181.544-.524zm213.646-142.53l1.15.626.242-.726.786-.384.505-2.46-1.009-1.13-1.029 1.069-.504 1.291-.141 1.714zm280.992 512.186l3.33.907 1.069 1.452.021 1.412-1.595 1.433-2.603-1.271-3.512-.262-3.088 1.452-.404.565.283 1.856-.626.625-2.865 1.412-2.14-2.179-2.886-.544-.807.262-.242.988-.625.363-2.604-.242-2.886.444-4.118.121-.706-1.17-3.108-2.582-.101-.948 1.03-3.026 8.032-2.38 1.715-.02 2.059-.484 4.319-1.916 4.581.383 1.292 1.231-.021 2.178.303.403 2.099.283 2.16 1.23 1.291.101 1.353-2.077zm163.11 73.846l1.433-1.473 1.413-.02.241-.403-.888-1.049-3.511-.726-.545 1.795.283 1.271 1.574.605zm-.788 2.965l.747.908.182-.101-1.171-2.804-.584-.383-2.039.403-1.534 1.493-.061.303 3.391-.283 1.069.464zM777.299 857l1.817-.908.464-.403.323-2.179 1.09-3.167 1.15-1.795.888-2.219-2.765-2.521.02-2.017.465-.746.464.181.302 1.896 1.595 1.876 1.756 1.13.766.101.747-.485.324-1.956-.445-2.098.585-2.178 1.272-1.554.485-3.106-.687-1.735 1.977 1.271.324 3.026-.424.262.505 1.251 2.159-.706.585-1.17-.686-1.493-.424-2.037 1.211-.908.746-.121 5.127 3.126 1.615 2.824-.687.586-1.876.141-1.352-1.453.343-.706-.102-.726-.524-.484-.707.202-1.211 2.158.283 1.432 1.433 2.925 2.018 2.501.828-1.23 1.574-.686 1.554 1.372.545-.041.202-1.694-1.171-2.642.343-2.602.828-.545-.122-2.078-.564-1.109-1.393-.847-.646.484.404.867-.949.061-.303-.484.888-2.986 1.575-1.634-.242-3.066.322-1.694.989-1.008 1.655-11.962 2.543-5.043.948 1.553 1.554 4.176-.262 1.936-.585.747.101.705.787.666 1.151-1.634-.122-3.348-1.332-2.158-.726-6.455 1.09-5.89-.747-2.158-.141-2.482.948-3.469-.081-2.198-.908-1.191-.161-1.492 1.392-4.962-1.211-2.724-1.15-1.513-3.108-2.299-1.433-.666-.928-.04-.444.484-.384 1.755-.706 1.19-1.393.807-.767.041-2.28-1.029-.525-.767-1.393.343-.483.303-2.201 3.812-1.574.948-1.332-1.19-4.581.928-2.846-.948-3.35 1.513-.989.907.101 1.392.444.424 1.534.343.646.927-1.837.041-1.15-.585-.485-1.916-1.15-.364-1.554.545-1.716 1.816.102 1.008-1.897-1.069-2.059.625-4.642-.423-7.024-3.308-7.306-4.337-4.46-1.452-1.331-1.13-3.472.565-2.865-2.118-4.905-.585-1.331.887-.041 3.349-1.777 1.613.405 2.905.666 1.251.605 3.066-.201 1.028 5.893 14.463 2.199 3.893 2.846 2.683 1.393 2.844.322 1.331-.04 1.776.424 1.21 3.895 4.276.908-.081 1.15.807-1.816 5.083-.949-4.397-3.854-2.945-.585-1.049-.404.524-.162 1.675 1.373 8.835 1.109.322.949 1.029 1.514 5.588.807 1.714 1.13 1.816 1.373-.061.464.464 2.886 4.599 2.402 4.902.484.342 5.833.747.847-1.533 1.554 1.291-.04 1.976-1.655-.342-1.191-.646-2.421-.363-1.292.908 2.32 3.651 1.575.524 2.643-.807.626.182.323.867.464.323 4.784.242 1.856.403 1.897 1.432 2.825.444.404.908zm26.399-100.109l1.977 1.089 1.07-.525 2.765-.504.605-.564.081-.767-1.029-5.628-.183-.827-1.674-.444-.808-.585-4.339-5.789-1.876.807-2.665 3.51 3.129 2.784 2.502 4.7-.121.605.566 2.138zm-90.961-3.409l.768.565 4.056-2.865.666-1.492.202-1.554-.525-2.965-.303-4.619-.908-1.311-1.957-1.19-.929.262.222 1.634-.262.746-1.716 1.271-.383 4.579-.061 1.553 1.251 1.634v1.977l-.403.302.282 1.473zm97.479 9.662l.06 1.392 1.535-1.191 1.513-.585.041-.302-2.987-3.55-3.068 1.553-1.534-.464-1.493.081-1.454 1.19-.04 1.109 1.958.848 5.086-.646.383.565z"/><path d="M786.179 852.3l1.393.646.383-.323.969-3.51-1.412-3.691-3.875 4.78 1.15 2.401 1.392-.303zm1.171-10.045l1.514 3.167 1.493-.303.061-.343-.788-3.651-.867-1.331-1.413 2.461zm15.924-15.996l-.102 3.954 1.857-2.562 1.534-.02.101-.303-.989-1.936-1.13-.101-1.271.968zm-68.963-55.511l.385.283 2.804-.969-1.977-2.259-1.312 1.553.1 1.392z"/></g><defs><filter id="filter0_d" x="0" y="0" width="960" height="905" filterUnits="userSpaceOnUse" color-interpolation-filters="sRGB"><feFlood flood-opacity="0" result="BackgroundImageFix"/><feColorMatrix in="SourceAlpha" values="0 0 0 0 0 0 0 0 0 0 0 0 0 0 0 0 0 0 127 0"/><feOffset dy="14"/><feGaussianBlur stdDeviation="17"/><feColorMatrix values="0 0 0 0 0 0 0 0 0 0 0 0 0 0 0 0 0 0 0.25 0"/><feBlend in2="BackgroundImageFix" result="effect1_dropShadow"/><feBlend in="SourceGraphic" in2="effect1_dropShadow" result="shape"/></filter></defs></svg>