<svg width="36" height="36" fill="none" xmlns="http://www.w3.org/2000/svg"><path d="M18.664 22.961L22.692 27l-4.04 4.039 1.598 1.586L25.875 27l-5.625-5.625-1.586 1.586zm7.876 0L30.566 27l-4.04 4.039 1.598 1.586L33.75 27l-5.625-5.625-1.586 1.586z" fill="#fff"/><path d="M15.75 25.875H4.5V8.899l12.859 8.899a1.125 1.125 0 001.282 0l12.86-8.9v10.227h2.25V7.875a2.25 2.25 0 00-2.25-2.25h-27a2.25 2.25 0 00-2.25 2.25v18a2.25 2.25 0 002.25 2.25h11.25v-2.25zm13.275-18L18 15.502 6.975 7.875h22.05z" fill="#fff"/></svg>