<svg width="22" height="18" fill="none" xmlns="http://www.w3.org/2000/svg"><g clip-path="url(#clip0)"><path d="M21.27 2.117a9.006 9.006 0 01-2.18 2.33 13.33 13.33 0 01-.497 4.208c-.34 1.21-.86 2.368-1.56 3.474a13.583 13.583 0 01-2.497 2.939c-.966.853-2.128 1.534-3.485 2.041-1.356.508-2.81.762-4.362.762-2.42 0-4.65-.676-6.689-2.028.362.041.71.062 1.041.062 2.023 0 3.83-.644 5.42-1.933a4.142 4.142 0 01-2.534-.901 4.435 4.435 0 01-1.54-2.234 4.25 4.25 0 001.97-.075c-1.006-.209-1.841-.727-2.505-1.556a4.463 4.463 0 01-.995-2.868v-.056a4.194 4.194 0 001.977.564 4.437 4.437 0 01-1.418-1.608 4.525 4.525 0 01-.524-2.146c0-.812.197-1.568.59-2.268 1.095 1.39 2.42 2.5 3.979 3.33a11.813 11.813 0 005.014 1.386 4.54 4.54 0 01-.114-1.027c0-1.246.426-2.31 1.278-3.19C12.491.44 13.519 0 14.724 0c1.26 0 2.322.475 3.186 1.425A8.517 8.517 0 0020.68.328c-.332 1.08-.97 1.912-1.917 2.498a8.501 8.501 0 002.507-.71z" fill="#E1E1E1"/></g><defs><clipPath id="clip0"><path fill="#fff" d="M0 0h21.27v17.871H0z"/></clipPath></defs></svg>